<?xml version="1.0" encoding="UTF-8"?>
<svg width="20px" height="20px" viewBox="0 0 20 20" version="1.1" xmlns="http://www.w3.org/2000/svg" xmlns:xlink="http://www.w3.org/1999/xlink">
    <title>路径</title>
    <g id="来量吧" stroke="none" stroke-width="1" fill="none" fill-rule="evenodd">
        <g id="首页-/切换网络" transform="translate(-32.000000, -705.000000)" fill-rule="nonzero">
            <g id="选择框-/-带标题-/-输入框" transform="translate(20.000000, 693.000000)">
                <g id="zhongguoguangdian" transform="translate(12.000000, 12.000000)">
                    <path d="M10,0 C4.3316823,0 -0.376355688,5.05333333 0.0237608548,10.7333333 C0.383865744,15.92 4.87850825,20 10,20 C15.1214918,20 19.6161343,15.92 19.9762391,10.7333333 C20.3763557,5.05333333 15.6683177,0 10,0 Z" id="路径" fill="#205686"></path>
                    <path d="M5.87860678,18.2711758 C6.44631749,18.6834339 7.33088998,19.2286785 8.50591912,19.6010406 C9.50931479,19.9069095 10.3806847,19.9867014 11.0276109,20 C11.5953216,19.9069095 12.1762349,19.8271176 12.7439456,19.7340271 C11.7933602,19.6808325 10.4995079,19.4946514 9.06042725,18.9627055 C7.96461356,18.5504474 7.08004107,18.0583975 6.40670976,17.6062435 C6.22187372,17.5264516 5.99742995,17.5796462 5.87860678,17.7392299 C5.75976265,17.8963408 5.75976265,18.114065 5.87860678,18.2711758 Z M6.01063253,16.5423517 C6.93481275,17.207284 8.24186763,17.9919042 9.9185946,18.603642 C11.2916624,19.1089906 12.5459069,19.3483663 13.5361,19.4680541 C13.9321773,19.2951717 14.3282545,19.1089906 14.7243317,18.9361082 C13.5889103,18.8164204 12.110222,18.5504474 10.4731027,17.9653069 C8.74356546,17.3402705 7.38370028,16.5423517 6.40670976,15.8774193 C6.22187372,15.7710301 5.98422738,15.8242247 5.87860678,16.0104058 C5.77298618,16.1965868 5.82579648,16.4359625 6.01063253,16.5423517 Z M6.27468402,10.0260145 C7.18566166,11.1563995 8.80957834,12.8852236 11.2916624,14.2815816 C13.9585824,15.7843288 16.4142613,16.2497814 17.8929496,16.4093652 C18.0645831,16.1832882 18.2494192,15.9705098 18.4210526,15.7444328 C17.1932132,15.5981477 15.6749171,15.2922788 14.0377979,14.6406451 C10.4466976,13.2176898 8.14944961,10.9170238 6.93481275,9.49406856 C6.73677413,9.44087397 6.53873551,9.49406856 6.40670976,9.62705503 C6.26148144,9.7866388 6.27468402,9.98611851 6.27468402,10.0260145 Z" id="形状" fill="#FFFFFF"></path>
                    <path d="M5.87966298,12.2535546 C7.14876998,13.4683354 9.31293138,15.1946028 12.4255833,16.3454478 C13.9618707,16.9080831 15.3912859,17.2149751 16.5668798,17.3684211 C16.8340602,17.1510392 17.1012406,16.9464446 17.3684211,16.7290627 C16.1393911,16.5628296 14.6698988,16.2559376 13.0668163,15.667728 C9.95416439,14.516883 7.74992592,12.8417642 6.41402382,11.6141963 C6.22699753,11.5374733 5.99989417,11.588622 5.87966298,11.742068 C5.75941059,11.8931362 5.75941059,12.1024864 5.87966298,12.2535546 Z" id="路径" fill="#FFFFFF"></path>
                    <path d="M5.79907983,14.3566211 C6.87699075,15.3137292 8.62530967,16.611725 11.0571819,17.5032778 C12.5557409,18.0539427 13.9097022,18.303053 15.0007584,18.4210526 C15.2636635,18.2506087 15.5265686,18.0670538 15.7894737,17.8966099 C14.619546,17.739277 13.1735679,17.4508335 11.5829921,16.8477243 C9.15111987,15.9299494 7.36336519,14.6712868 6.19343748,13.7010676 C6.00940391,13.5961791 5.77278932,13.6486233 5.66762728,13.8321783 C5.56246524,14.0157333 5.61504626,14.2517325 5.79907983,14.3566211 Z M14.5932555,1.70443903 C14.0280095,1.29799588 13.1472774,0.76044203 11.9773497,0.393332085 C10.9783103,0.0917774864 10.1107235,0.0131110695 9.466606,0 C8.90136003,0.0917774864 8.32296881,0.170443903 7.75772284,0.26222139 C8.7041812,0.314665668 9.9924162,0.498220641 11.425249,1.02266342 C12.5163052,1.42910657 13.3970373,1.91421615 14.0674453,2.35999251 C14.2514788,2.43865892 14.4749482,2.38621465 14.5932555,2.22888181 C14.7115628,2.07154898 14.7115628,1.86177187 14.5932555,1.70443903 Z M14.4618029,3.40887807 C13.5416351,2.75332459 12.2402548,1.97977149 10.5708074,1.3766623 C9.20370089,0.878441656 7.95490166,0.642442405 6.96900753,0.52444278 C6.57464988,0.694886683 6.18029223,0.878441656 5.78593458,1.04888556 C6.91642651,1.16688518 8.38869508,1.42910657 10.0187067,2.00599363 C11.7407351,2.6222139 13.0946964,3.395767 14.0674453,4.06443154 C14.2514788,4.1693201 14.4880934,4.11687582 14.5932555,3.93332085 C14.6984175,3.74976587 14.6458365,3.51376662 14.4618029,3.40887807 Z M14.1988978,9.83330212 C13.2918752,8.71886121 11.6750088,7.01442218 9.20370089,5.63775988 C6.54835937,4.15620903 4.10334193,3.6973216 2.63107336,3.53998876 C2.46018504,3.76287694 2.27615147,3.97265406 2.10526316,4.19554224 C3.32777188,4.339764 4.83947621,4.6413186 6.46948784,5.283761 C10.0449972,6.68664544 12.3454169,8.95486046 13.5416351,10.3577449 C13.7388139,10.4101892 13.9359927,10.3577449 14.0674453,10.2266342 C14.2120431,10.0693014 14.1988978,9.85952426 14.1988978,9.83330212 L14.1988978,9.83330212 Z" id="形状" fill="#FFFFFF"></path>
                    <path d="M14.6466686,7.74644539 C13.3775599,6.53166461 11.2133955,4.80539719 8.1007393,3.65455224 C6.56444977,3.09191693 5.13503256,2.78502494 3.9594371,2.63157895 C3.69225631,2.84896077 3.42507552,3.05355543 3.15789474,3.27093725 C4.38692636,3.43717041 5.85642069,3.7440624 7.45950541,4.33227204 C10.5855206,5.48311699 12.7764031,7.15823575 14.112307,8.3858037 C14.2993336,8.46252669 14.5264372,8.41137803 14.6466686,8.25793204 C14.7668999,8.10448604 14.7668999,7.89989139 14.6466686,7.74644539 L14.6466686,7.74644539 Z" id="路径" fill="#FFFFFF"></path>
                    <path d="M14.5549824,5.61221414 C13.4956568,4.66244487 11.7774822,3.37440161 9.38754016,2.48968503 C7.91481911,1.94324243 6.58420272,1.69604221 5.51195845,1.57894737 C5.25358633,1.74808436 4.99521422,1.93023189 4.73684211,2.09936889 C5.88659801,2.25549534 7.30764464,2.54172718 8.87079593,3.14021192 C11.260738,4.05094958 13.0176684,5.29996123 14.1674243,6.26274104 C14.3482848,6.36682534 14.5808197,6.31478319 14.6841685,6.13263566 C14.7875174,5.95048812 14.7358429,5.71629844 14.5549824,5.61221414 Z" id="路径" fill="#FFFFFF"></path>
                </g>
            </g>
        </g>
    </g>
</svg>