<?xml version="1.0" encoding="UTF-8"?>
<svg width="24px" height="20px" viewBox="0 0 24 20" version="1.1" xmlns="http://www.w3.org/2000/svg" xmlns:xlink="http://www.w3.org/1999/xlink">
    <title>changyonglogo39</title>
    <g id="来量吧" stroke="none" stroke-width="1" fill="none" fill-rule="evenodd">
        <g id="首页-/切换网络" transform="translate(-32.000000, -601.000000)" fill="#D81E06" fill-rule="nonzero">
            <g id="选择框-/-带标题-/-输入框" transform="translate(20.000000, 589.000000)">
                <g id="changyonglogo39" transform="translate(12.000000, 12.000000)">
                    <path d="M16.4076646,13.4630449 C15.3915199,12.3431563 14.3756629,11.2229577 13.3599339,10.1026558 C13.3358298,10.0760672 13.3150823,10.0459657 13.2816115,10.0032931 C13.3642176,9.90840768 13.4426998,9.81551991 13.5238993,9.72545628 C14.6806726,8.44338427 15.8403869,7.16444637 16.9931002,5.87817255 C17.2981418,5.53772172 17.6238669,5.20557122 17.8663146,4.8163173 C18.3513697,4.0372928 18.4162974,3.18032796 18.0579007,2.32091782 C17.8781429,1.88981786 17.6451258,1.48327448 17.3199122,1.14740433 C16.6585838,0.464229557 15.9324876,-0.0445007572 14.9614183,0.0263791695 C14.3707398,0.0695683795 13.8536525,0.30077184 13.4230074,0.727669986 C13.0944051,1.05338 12.7967802,1.41542541 12.4847055,1.76052582 C12.3264944,1.93552133 12.1667807,2.1088981 11.9947273,2.29725679 C11.9685452,2.25499748 11.9610007,2.2370192 11.9488208,2.22406933 C11.4347384,1.67642051 10.9578991,1.07855649 10.3968553,0.593900547 C9.58348558,-0.108630151 8.65985722,-0.173138418 7.71883806,0.322332048 C7.02819472,0.6860651 6.50039795,1.25007345 6.10977716,1.95418844 C5.62504169,2.82799502 5.57370058,3.72859677 6.02346272,4.64628137 C6.1943653,4.99489474 6.44800185,5.26115934 6.7001679,5.53741185 C7.96694409,6.92542485 9.22537659,8.32211703 10.4855034,9.71715605 C10.5663832,9.80673748 10.6365537,9.90754677 10.7203106,10.0140388 C10.6167973,10.1331708 10.5265827,10.2408338 10.4326598,10.3444328 C9.25628997,11.6414178 8.07781022,12.9362331 6.90351832,14.2353535 C6.53607459,14.6418624 6.1427365,15.0208529 5.92806931,15.5670552 C5.63370514,16.3159437 5.6407062,17.0537421 5.97240936,17.7686716 C6.41328432,18.7190064 7.08266872,19.4264622 8.01387362,19.8216056 C8.77139467,20.1430104 9.49032997,20.00776 10.1783519,19.5947417 C10.5641774,19.3631593 10.8388172,18.9911948 11.1422603,18.6558758 C11.4239971,18.3445966 11.7189047,18.0469561 11.965796,17.7876831 C12.3513657,18.1742851 12.7553812,18.5369849 13.1120516,18.9475579 C13.5647229,19.4685837 14.0833448,19.8345554 14.7400058,19.9609545 C15.4091664,20.0896611 16.0114174,19.889248 16.5689128,19.5107741 C17.1776533,19.0975492 17.6457972,18.5440109 17.9854925,17.8532591 C18.4947156,16.817648 18.3014992,15.6583587 17.6247301,14.8124839 C17.2452982,14.3382635 16.814717,13.9116409 16.4076646,13.4630449 Z M8.53367826,4.34406009 C8.35324913,4.14430139 8.16984693,3.94753908 7.99229497,3.74481841 C7.65087343,3.3550134 7.73191309,2.66274619 8.13033412,2.3371395 C8.62091979,1.93614112 9.07691576,2.04463075 9.44659726,2.49904735 C9.77133133,2.89818592 10.1282895,3.26684403 10.4708938,3.64910644 C10.5148503,3.69818507 10.5576558,3.7483314 10.6348593,3.83684517 C10.2828562,4.1841498 9.94085928,4.52153534 9.58732172,4.87042425 C10.0956498,5.38921137 10.5676619,5.87097425 11.0221234,6.3348622 C11.3198442,6.0387716 11.6682349,5.69236245 12.0312989,5.33124692 C12.3386103,5.6805491 12.6638559,6.05006829 12.9635268,6.39058798 C13.4383201,5.89597855 13.9029795,5.41187367 14.3818008,4.91302797 C14.0503214,4.53868705 13.7276333,4.17416185 13.391966,3.7950336 C13.5319553,3.63991064 13.6660943,3.49150368 13.8000415,3.3428901 C14.0948213,3.0160091 14.3837509,2.68272204 14.6857875,2.36383138 C15.0108732,2.02059081 15.354021,1.99141916 15.7360743,2.25303419 C16.1483376,2.53541724 16.2910441,2.90156115 16.1719941,3.41370113 C16.1460359,3.5254627 16.0936718,3.64535233 16.0202726,3.72687455 C14.7311825,5.1601088 13.4369775,6.588108 12.1435716,8.01683046 C12.102876,8.06187951 12.0590474,8.10355329 11.9877581,8.17632745 C11.7646513,7.92676683 11.5466594,7.68102921 11.3267174,7.43735801 C10.3960561,6.40584546 9.46481921,5.37498722 8.53367826,4.34406009 Z M15.7563103,17.7617144 C15.3861492,17.999875 14.9829329,17.9704622 14.6520609,17.6146162 C14.232381,17.1634026 13.7968128,16.7293407 13.3536361,16.2729266 C13.5650425,16.0299098 13.7255874,15.8452707 13.8862281,15.6607695 C14.0464213,15.4767504 14.2067424,15.2929724 14.3802344,15.0939714 C13.8987917,14.6029783 13.4265238,14.1213876 12.9465516,13.6319788 C12.6659338,13.951145 12.3430219,14.3184599 12.0317785,14.6724116 C11.6769302,14.318391 11.3290192,13.9713619 11.0014719,13.6445154 C10.5573042,14.103306 10.0882652,14.5877897 9.60573549,15.0860844 C9.94776443,15.4713431 10.2754396,15.8404145 10.6062796,16.2131023 C10.3961199,16.4522273 10.193313,16.6870815 9.9863182,16.9174584 C9.7821366,17.1446323 9.56555132,17.3593729 9.36888228,17.593676 C8.96374791,18.0763688 8.36744303,17.9853753 8.00130999,17.5338862 C7.71461819,17.1803477 7.6796129,16.5946414 8.0441795,16.1999802 C9.0317445,15.1308579 10.0018868,14.0431373 10.978135,12.961995 C11.2365348,12.6758579 11.4945191,12.3892386 11.7473564,12.0974187 C11.8231533,12.0099381 11.8806643,11.9042038 11.9451124,11.8090084 C12.2478523,12.1286224 12.5032151,12.3882398 12.7483162,12.6587062 C13.7019628,13.7106768 14.6524126,14.7660572 15.6039812,15.8201632 C15.7433631,15.9745629 15.8853663,16.1264139 16.0214234,16.2841544 C16.3754725,16.6945552 16.2365382,17.4527772 15.7563103,17.7617144 Z" id="形状"></path>
                    <path d="M23.7916822,8.6608572 C23.3659516,7.14423084 22.3641251,6.29409919 20.9805822,6.25163455 C20.0899321,6.22426033 19.3015904,6.54061298 18.6419655,7.20860217 C18.2674217,7.58790456 17.9253179,8.0072659 17.5849095,8.39028624 C17.1711442,7.95791214 16.7256236,7.4923682 16.3083045,7.05627616 C15.851112,7.54704375 15.372108,8.06121245 14.8853119,8.58372828 C15.3009355,9.06600291 15.7062241,9.53632185 16.1483866,10.0495064 C15.7123534,10.5056461 15.2923936,10.9450552 14.8571429,11.4005024 C15.3674132,11.9474035 15.8469388,12.4613535 16.3031206,12.9502256 C16.7261452,12.5046201 17.1700357,12.0370713 17.6169257,11.5663515 C17.6232506,11.574006 17.6413453,11.5915022 17.6545822,11.6127528 C18.0038913,12.173177 18.4357512,12.6376639 18.9284811,13.0420076 C19.5487215,13.5510004 20.2374609,13.7720718 20.9997201,13.7482697 C21.7063912,13.7260715 22.3464542,13.5009905 22.8804595,12.9700182 C23.5353895,12.3187597 23.8380436,11.4643998 23.9666627,10.5203356 C24.0531586,9.8854798 23.9630764,9.27140065 23.7916822,8.6608572 Z M21.8676133,10.8796996 C21.5523418,11.4763555 20.9586403,11.546887 20.4980897,11.3906243 C19.9452398,11.2030507 19.5409946,10.7736291 19.1546159,10.3192754 C18.8484732,9.95932817 18.8563958,10.012655 19.1582022,9.68303448 C19.4224173,9.39445702 19.6966415,9.10930587 19.9983175,8.87365435 C20.3828379,8.57323051 20.8206968,8.43763519 21.2915826,8.60209921 C21.7144116,8.74979606 22.0923461,9.26257963 22.0610146,10.0136027 C22.0786528,10.3154846 22.0115557,10.6073426 21.8676133,10.8796996 Z" id="形状"></path>
                    <path d="M6.31932971,11.6404647 C6.34508825,11.5965793 6.36126071,11.5455499 6.38578022,11.4887614 C6.84887968,12.0304758 7.26571156,12.5180625 7.64276445,12.9591395 C8.13478522,12.4373995 8.61604606,11.9271411 9.14285714,11.368514 C8.70887461,10.916976 8.28813002,10.4792888 7.8574733,10.0312499 C8.29269483,9.52543837 8.69775606,9.05483718 9.11605521,8.56881777 C8.62465395,8.03701765 8.150762,7.52435356 7.6687512,7.00272287 C7.26189665,7.47886442 6.8446409,7.96725306 6.41805988,8.46639432 C6.38046545,8.42659133 6.35728275,8.40537762 6.33762151,8.38073767 C6.05946187,8.03173243 5.8056587,7.65327591 5.49936031,7.33860621 C4.69057471,6.5077004 3.74539925,6.12071465 2.62982613,6.28841941 C1.73743939,6.42262694 1.03387254,6.88652141 0.579674433,7.74265038 C-0.0458994786,8.92165018 -0.17870269,10.1684099 0.247552271,11.4875221 C0.836672934,13.3107691 2.23011224,13.9728038 3.78664548,13.6855078 C4.33745441,13.5839227 4.82530162,13.2796047 5.26045793,12.8899217 C5.66362811,12.5289974 6.03354034,12.1279421 6.31932971,11.6404647 Z M5.02132745,10.0871272 C4.59856132,10.6090859 4.17334975,11.1334503 3.55100379,11.3668373 C3.40512567,11.4215118 3.24878111,11.4413404 3.09726219,11.4771704 C2.48274163,11.4634289 2.02110944,10.9919893 1.95720218,10.31337 C1.91276055,9.84196694 1.93278048,9.39181396 2.20161487,8.99535133 C2.49992485,8.55533138 3.15236589,8.41408904 3.64347369,8.6545837 C4.19793445,8.92602411 4.60361519,9.39432898 4.99990545,9.87790628 C5.03567399,9.92160938 5.05028136,10.051443 5.02132745,10.0871272 Z" id="形状"></path>
                </g>
            </g>
        </g>
    </g>
</svg>