<?xml version="1.0" encoding="UTF-8"?>
<svg width="20px" height="20px" viewBox="0 0 20 20" version="1.1" xmlns="http://www.w3.org/2000/svg" xmlns:xlink="http://www.w3.org/1999/xlink">
    <title>mobile</title>
    <g id="来量吧" stroke="none" stroke-width="1" fill="none" fill-rule="evenodd">
        <g id="首页-/切换网络" transform="translate(-32.000000, -549.000000)" fill-rule="nonzero">
            <g id="选择框-/-带标题-/-输入框" transform="translate(20.000000, 537.000000)">
                <g id="mobile" transform="translate(12.000000, 12.000000)">
                    <path d="M19.9602883,12.4952381 C18.200673,9.94285714 15.5734875,7.32190475 14.8493428,6.68380953 C14.3326344,6.22857143 13.8354374,6 13.3387539,6 C12.8160615,6.01752349 12.3165423,6.24405605 11.931712,6.63809525 C11.8488744,6.72933335 11.7247891,6.8432381 11.5799943,6.98 C10.5453796,7.93733333 7.31727884,11.1965714 7.23461235,11.287619 C6.98843427,11.5472426 6.66321648,11.6937861 6.32408291,11.6979048 C5.94748483,11.6610122 5.59526631,11.4750216 5.33140041,11.1737143 C4.39364992,10.3217178 3.51497308,9.39222459 2.70284566,8.39314286 C1.91657268,7.41314286 1.254385,6.54704761 1.254385,6.54704761 C1.254385,6.54704761 1.10959028,6.86609522 1.02675264,7.1167619 C0.98487154,7.23577907 0.992453336,7.36931987 1.04746205,7.48152382 C1.48201735,8.16533333 3.44735753,10.7407619 6.13786936,13.3161905 C6.54880368,13.7428191 7.08644333,13.986224 7.64828711,14 C8.17097952,13.9824765 8.67049866,13.755944 9.05532895,13.3619048 C9.13816658,13.2706667 9.2622519,13.1567619 9.40704662,13.02 C10.4416614,12.0626667 12.407515,10.0798095 13.3178733,9.14533333 C13.5247963,8.94019047 13.669591,8.80342857 13.7317192,8.73504761 C13.9778973,8.47542405 14.3031151,8.32888051 14.6422487,8.3247619 C15.0162538,8.37201218 15.3654962,8.55643125 15.6349311,8.84895239 C16.2142812,9.396 17.14552,10.3537143 18.2628013,11.6299048 C19.0697837,12.5872381 19.7112619,13.4533333 19.7112619,13.476 C19.7112619,13.476 19.8560567,13.1340952 19.9388943,12.9062857 C20.0118968,12.7835102 20.020065,12.6265731 19.9602883,12.4952381 L19.9602883,12.4952381 Z" id="路径" fill="#8DC21F"></path>
                    <path d="M9.28133594,3.68911235 C8.38415125,4.31466711 4.71375801,7.57905818 4,8.36100163 C4.3992377,8.7743027 4.82859544,9.15989733 5.28483204,9.51487467 C5.38012001,9.59244093 5.50497497,9.62814297 5.62901959,9.61329446 C5.7530642,9.59844595 5.86492694,9.53440809 5.93739148,9.43676135 C7.34445163,8.06848186 10.2400573,5.62492883 10.6273666,5.33176081 C11.708147,4.45209469 12.99281,4.37398137 14.1346199,5.19498147 C16.9485712,7.22722414 19.4566986,10.4135019 19.8849196,11 C19.8849196,11 19.9461182,10.706832 19.9863537,10.4527206 C20.0200148,10.2983906 19.9908637,10.1375633 19.9048683,10.0031639 C17.2540569,6.34755802 14.4404438,4.0801651 13.3596633,3.51327635 C12.1361989,2.90733096 10.708852,2.69211418 9.28133594,3.68911235 Z" id="路径" fill="#0084CF"></path>
                    <path d="M5.88021134,1.52461768 C4.01652636,2.96374644 1.60785551,5.08266633 1,5.72235276 C1.36875357,6.14147402 1.7603479,6.5418031 2.17316113,6.92168198 C2.22810789,6.97408728 2.30490839,7.00002667 2.38216973,6.99227469 C2.45943108,6.98452272 2.52889773,6.94390769 2.57121965,6.88174299 C4.41458488,5.18259661 6.40470381,3.44351125 7.57769125,2.58391191 C9.52595497,1.14461743 11.8302484,1.00474817 14.0716721,2.70389454 C15.0104553,3.42073555 15.8991785,4.19531046 16.7321688,5.02267501 C17.918113,6.27346886 19.010101,7.60254335 20,9 C19.9925674,8.71767693 19.9576831,8.43662193 19.8957962,8.16045298 C19.8690733,8.04894927 19.8267824,7.94137391 19.770057,7.84060977 C19.1131849,6.69461288 18.3338171,5.61654224 17.4444018,4.62361673 C14.9304851,1.82440855 13.3594391,0.984861527 12.3330317,0.465157735 C10.9712617,-0.194415333 8.35279384,-0.394441629 5.88021134,1.52461768 Z" id="路径" fill="#0084CF"></path>
                    <path d="M10.7185896,16.3186755 C11.6157869,15.695782 15.286401,12.4457628 16,11.6666618 C15.5982594,11.2516121 15.1690987,10.8615331 14.7151498,10.4988172 C14.6198605,10.421581 14.4950038,10.3860308 14.3709574,10.4008161 C14.2469111,10.4156015 14.1350468,10.4793669 14.0625812,10.5765982 C12.6561775,11.9390567 9.76053093,14.3722141 9.37304717,14.6641349 C8.2922515,15.5400587 7.0075704,15.6178397 5.84528817,14.8003323 C3.03129726,12.7760899 0.543421611,9.60336755 0.115194564,9 C0.115194564,9 0.0539951153,9.2919208 0.0137590247,9.54495111 C-0.0200478845,9.69863494 0.00898366134,9.8588412 0.094907456,9.99275664 C2.74575622,13.6324878 5.55974713,15.8905573 6.6405428,16.4553571 C7.86402445,17.097131 9.29156062,17.3106253 10.7185896,16.3186755 Z" id="路径" fill="#0084CF"></path>
                    <path d="M14.1197441,18.4755198 C15.9841408,17.0362946 18.393181,14.9176423 19,14.2779867 C18.6312431,13.8588856 18.2396452,13.4585758 17.8268282,13.0787152 C17.7718809,13.0263124 17.6950797,13.0003742 17.6178177,13.0081258 C17.5405556,13.0158774 17.4710883,13.0564905 17.428766,13.1186522 C15.5855576,14.8177169 13.5954205,16.5567185 12.4224223,17.4162766 C10.4741408,18.8555018 8.16982632,18.9953643 5.92838208,17.2962997 C4.98957428,16.5793328 4.10084261,15.8046288 3.26786106,14.9771336 C2.08190598,13.7264 0.989908017,12.3973894 0,11 C0.00844885359,11.2822392 0.0433225527,11.5631928 0.104204753,11.8395066 C0.13103352,11.9512576 0.173501792,12.0590552 0.230466173,12.1599973 C0.887152896,13.3063848 1.66641327,14.3848505 2.55579524,15.3781613 C5.06956125,18.1754119 6.64062157,19.01525 7.66703839,19.5342659 C9.02882085,20.1946358 11.6473126,20.3944868 14.1197441,18.4755198 L14.1197441,18.4755198 Z" id="路径" fill="#0084CF"></path>
                </g>
            </g>
        </g>
    </g>
</svg>