<?xml version="1.0" encoding="UTF-8"?>
<svg width="20px" height="20px" viewBox="0 0 20 20" version="1.1" xmlns="http://www.w3.org/2000/svg" xmlns:xlink="http://www.w3.org/1999/xlink">
    <title>changyonglogo38</title>
    <g id="来量吧" stroke="none" stroke-width="1" fill="none" fill-rule="evenodd">
        <g id="首页-/切换网络" transform="translate(-32.000000, -653.000000)" fill="#1E6292" fill-rule="nonzero">
            <g id="选择框-/-带标题-/-输入框" transform="translate(20.000000, 641.000000)">
                <g id="changyonglogo38" transform="translate(12.000000, 12.000000)">
                    <path d="M6.41843733,1.41069451 C6.46890514,1.61217676 6.50770718,1.81084775 6.56998068,2.00125888 C6.61765096,2.14697994 6.58592674,2.21187042 6.44736402,2.27441339 C5.68052728,2.62063129 4.94907956,3.03408722 4.28782238,3.56918022 C3.8334721,3.93684472 3.41397932,4.34149018 3.12683867,4.8699753 C2.62884658,5.78649923 2.86490396,6.64126272 3.75653945,7.14908374 C4.3723364,7.49979383 5.04103505,7.65887554 5.73401645,7.73434443 C5.88975613,7.75132782 5.92783078,7.69887056 5.94710591,7.5437304 C6.15348126,5.88176275 6.52133125,4.26555755 7.2611996,2.76087471 C7.61262796,2.04623877 8.03838727,1.38542223 8.63843402,0.865370838 C9.10959758,0.457102679 9.63889425,0.181832475 10.270889,0.183977146 C10.9702768,0.186353659 11.534431,0.51721116 12.0324511,0.98984814 C12.6484998,1.5743843 13.0681045,2.3018882 13.4411299,3.10888949 C13.177209,3.18172102 12.9254014,3.25463953 12.67116,3.3168347 C12.6408345,3.32422509 12.5940035,3.2769556 12.5600972,3.24837944 C12.0190787,2.79162452 11.4802144,2.83477859 11.0120723,3.37763877 C10.6676657,3.77703848 10.4510793,4.25199403 10.27212,4.74790349 C9.96948091,5.58684286 9.80520871,6.45925632 9.68986566,7.3433205 C9.68488601,7.3814607 9.68922223,7.42099203 9.68922223,7.49237447 C9.98668584,7.42238317 10.2657136,7.36586842 10.5400135,7.29066038 C11.9315154,6.90920048 13.269724,6.39152561 14.4898759,5.58550969 C15.1982718,5.11756776 15.8528428,4.58630036 16.2861275,3.81683066 C16.7553048,2.98371667 16.5840947,2.14938543 15.7912407,1.64692606 C15.4412951,1.42509851 15.0341395,1.29717238 14.6466227,1.14371314 C14.53321,1.09882017 14.4549065,1.06186822 14.4264274,0.92710233 C14.3639861,0.631428876 14.2862142,0.339233259 14.2035745,0 C14.5733548,0.0353869162 14.9149358,0.0586593937 15.2540829,0.102277174 C16.2214761,0.226725502 17.1620408,0.456349177 18.0433254,0.9039168 C18.6555974,1.21489271 19.1981824,1.62107417 19.5771387,2.21760882 C20.1092609,3.0553889 20.1083657,3.94519151 19.7461388,4.84644198 C19.3308983,5.87953116 18.602304,6.65595654 17.7834329,7.35152239 C16.4368037,8.49546737 14.9014516,9.2848187 13.2772774,9.9025681 C12.1196227,10.3428323 10.9311111,10.6671109 9.7151835,10.8805047 C9.57980999,10.9042119 9.52478217,10.9604368 9.53446169,11.1057521 C9.63192838,12.5687589 9.76335732,14.026607 10.2729592,15.4117684 C10.3902046,15.7305115 10.565639,16.0270254 10.7235328,16.3285532 C10.769021,16.4154989 10.8407502,16.4909098 10.910717,16.5604664 C11.2597115,16.9074379 11.6645451,16.897642 11.9928937,16.5280067 C12.368465,16.1052476 12.585499,15.5877176 12.7240337,15.0454081 C12.8934534,14.3821571 13.0096357,13.7043861 13.1556678,13.0344693 C13.1705228,12.9662458 13.2209907,12.8685478 13.2737245,12.8530135 C13.6922661,12.7300433 14.1153398,12.6233609 14.5373504,12.5131716 C14.5535202,12.5089403 14.5734108,12.5199534 14.6012464,12.5259527 C14.4956948,13.5012519 14.3165956,14.4571623 14.0463522,15.3946981 C13.7996361,16.2505919 13.4915139,17.0801121 13.0485496,17.8495239 C12.7129554,18.4323791 12.324963,18.970834 11.8050102,19.3977085 C10.8427365,20.1877554 9.74005375,20.2035795 8.76863208,19.4272991 C8.12046746,18.9093054 7.66606122,18.2297955 7.29236434,17.4871341 C6.66291535,16.236101 6.29148447,14.8967889 6.07464629,13.5123231 C5.9622407,12.7944701 5.90349212,12.0671691 5.83629493,11.3425634 C5.82006912,11.1676865 5.73647829,11.1563836 5.60849035,11.1489352 C4.50328979,11.0844794 3.42038574,10.8983866 2.38859291,10.4673966 C1.673343,10.1686221 1.01549886,9.77032367 0.540138965,9.12104196 C-0.110039884,8.23300725 -0.141204601,7.27040208 0.27554658,6.27325048 C0.657440287,5.35962473 1.28627384,4.64136606 2.00415343,4.00280761 C3.29494352,2.85460229 4.77926819,2.0504992 6.3538139,1.41127417 C6.3648922,1.40678196 6.37904781,1.41069451 6.41843733,1.41069451 Z" id="路径"></path>
                </g>
            </g>
        </g>
    </g>
</svg>