<?xml version="1.0" encoding="UTF-8"?>
<svg width="40px" height="40px" viewBox="0 0 40 40" version="1.1" xmlns="http://www.w3.org/2000/svg" xmlns:xlink="http://www.w3.org/1999/xlink">
    <title>矩形</title>
    <defs>
        <path d="M30.9315021,9.2186909 C31.0373386,9.41463462 31.122786,9.62092299 31.1865015,9.83431382 C31.9009681,12.2271509 33.7728491,14.0990319 36.1656862,14.8134985 C37.8881665,15.3278064 38.8675839,17.1410815 38.353276,18.8635618 C38.2895606,19.0769526 38.2041132,19.283241 38.0982767,19.4791847 C36.9114896,21.6763803 36.9114896,24.3236197 38.0982767,26.5208153 C38.9525837,28.1024634 38.3629572,30.0771951 36.7813091,30.9315021 C36.5853654,31.0373386 36.379077,31.122786 36.1656862,31.1865015 C33.7728491,31.9009681 31.9009681,33.7728491 31.1865015,36.1656862 C30.6721936,37.8881665 28.8589185,38.8675839 27.1364382,38.353276 C26.9230474,38.2895606 26.716759,38.2041132 26.5208153,38.0982767 C24.3236197,36.9114896 21.6763803,36.9114896 19.4791847,38.0982767 C17.8975366,38.9525837 15.9228049,38.3629572 15.0684979,36.7813091 C14.9626614,36.5853654 14.877214,36.379077 14.8134985,36.1656862 C14.0990319,33.7728491 12.2271509,31.9009681 9.83431382,31.1865015 C8.11183348,30.6721936 7.13241614,28.8589185 7.64672397,27.1364382 C7.7104394,26.9230474 7.79588684,26.716759 7.90172333,26.5208153 C9.08851039,24.3236197 9.08851039,21.6763803 7.90172333,19.4791847 C7.04741635,17.8975366 7.63704282,15.9228049 9.2186909,15.0684979 C9.41463462,14.9626614 9.62092299,14.877214 9.83431382,14.8134985 C12.2271509,14.0990319 14.0990319,12.2271509 14.8134985,9.83431382 C15.3278064,8.11183348 17.1410815,7.13241614 18.8635618,7.64672397 C19.0769526,7.7104394 19.283241,7.79588684 19.4791847,7.90172333 C21.6763803,9.08851039 24.3236197,9.08851039 26.5208153,7.90172333 C28.1024634,7.04741635 30.0771951,7.63704282 30.9315021,9.2186909 Z M22.7428632,16.1625414 C22.6182683,15.7003172 22.3246731,15.53081 21.8620777,15.6540196 C21.3994823,15.7772293 21.3772797,16.1546999 21.4395772,16.385812 L21.4395772,16.385812 L22.8101219,21.4702782 L20.1677653,19.9447129 C19.8741701,19.7752056 19.4115747,19.8984154 19.2425745,20.1911323 C19.0735743,20.4838492 19.0513717,20.8613198 19.4917645,21.1155807 L19.4917645,21.1155807 L22.2809186,22.7258996 L21.2669174,24.4822013 L18.4777632,22.8718823 C18.184168,22.7023751 17.7215726,22.8255848 17.5525724,23.1183017 C17.3835722,23.4110187 17.5081672,23.8732429 17.8017624,24.0427501 L17.8017624,24.0427501 L20.5909166,25.653069 L19.4079151,27.7020876 C19.2389149,27.9948046 19.3635099,28.4570288 19.6571051,28.626536 C19.9507003,28.7960433 20.4132957,28.6728336 20.5822959,28.3801167 L20.5822959,28.3801167 L21.7652973,26.3310981 L24.9948443,28.1956779 C25.2884394,28.3651851 25.7510348,28.2419754 25.920035,27.9492585 C26.0890352,27.6565416 25.9644403,27.1943174 25.6708451,27.0248101 L25.6708451,27.0248101 L22.4412981,25.1602303 L23.4552994,23.4039286 L26.8316439,25.3532621 C27.1252391,25.5227693 27.5878345,25.3995596 27.7568347,25.1068427 C27.9258349,24.8141257 27.8012399,24.3519015 27.5076447,24.1823943 L27.5076447,24.1823943 L24.4248954,22.4025681 L29.6602422,21.1320151 C30.0383375,21.1551639 30.2918378,20.7160885 30.0827427,20.4002228 C29.9581477,19.9379986 29.6645526,19.7684913 29.2019572,19.891701 L29.2019572,19.891701 L24.1134079,21.2470076 Z" id="path-1"></path>
        <filter x="-6.5%" y="-6.5%" width="112.9%" height="112.9%" filterUnits="objectBoundingBox" id="filter-2">
            <feMorphology radius="1" operator="erode" in="SourceAlpha" result="shadowSpreadInner1"></feMorphology>
            <feGaussianBlur stdDeviation="1" in="shadowSpreadInner1" result="shadowBlurInner1"></feGaussianBlur>
            <feOffset dx="1" dy="1" in="shadowBlurInner1" result="shadowOffsetInner1"></feOffset>
            <feComposite in="shadowOffsetInner1" in2="SourceAlpha" operator="arithmetic" k2="-1" k3="1" result="shadowInnerInner1"></feComposite>
            <feColorMatrix values="0 0 0 0 1   0 0 0 0 1   0 0 0 0 1  0 0 0 0.504698427 0" type="matrix" in="shadowInnerInner1" result="shadowMatrixInner1"></feColorMatrix>
            <feMorphology radius="1" operator="erode" in="SourceAlpha" result="shadowSpreadInner2"></feMorphology>
            <feGaussianBlur stdDeviation="1" in="shadowSpreadInner2" result="shadowBlurInner2"></feGaussianBlur>
            <feOffset dx="-1" dy="-1" in="shadowBlurInner2" result="shadowOffsetInner2"></feOffset>
            <feComposite in="shadowOffsetInner2" in2="SourceAlpha" operator="arithmetic" k2="-1" k3="1" result="shadowInnerInner2"></feComposite>
            <feColorMatrix values="0 0 0 0 1   0 0 0 0 1   0 0 0 0 1  0 0 0 0.493170892 0" type="matrix" in="shadowInnerInner2" result="shadowMatrixInner2"></feColorMatrix>
            <feMerge>
                <feMergeNode in="shadowMatrixInner1"></feMergeNode>
                <feMergeNode in="shadowMatrixInner2"></feMergeNode>
            </feMerge>
        </filter>
    </defs>
    <g id="来量吧" stroke="none" stroke-width="1" fill="none" fill-rule="evenodd">
        <g id="首页-/已连接" transform="translate(-27.000000, -618.000000)">
            <g id="zhangdan" transform="translate(27.000000, 618.000000)">
                <rect id="矩形" fill-rule="nonzero" x="2.27373675e-13" y="0" width="40" height="40"></rect>
                <path d="M13.4791847,32.0982767 C11.8975366,32.9525837 9.92280488,32.3629572 9.0684979,30.7813091 C8.96266141,30.5853654 8.87721397,30.379077 8.81349854,30.1656862 C8.09903185,27.7728491 6.22715088,25.9009681 3.83431382,25.1865015 C2.11183348,24.6721936 1.13241614,22.8589185 1.64672397,21.1364382 C1.7104394,20.9230474 1.79588684,20.716759 1.90172333,20.5208153 C3.08851039,18.3236197 3.08851039,15.6763803 1.90172333,13.4791847 C1.04741635,11.8975366 1.63704282,9.92280488 3.2186909,9.0684979 C3.41463462,8.96266141 3.62092299,8.87721397 3.83431382,8.81349854 C6.22715088,8.09903185 8.09903185,6.22715088 8.81349854,3.83431382 C9.32780637,2.11183348 11.1410815,1.13241614 12.8635618,1.64672397 C13.0769526,1.7104394 13.283241,1.79588684 13.4791847,1.90172333 C15.6763803,3.08851039 18.3236197,3.08851039 20.5208153,1.90172333 C22.1024634,1.04741635 24.0771951,1.63704282 24.9315021,3.2186909 C25.0373386,3.41463462 25.122786,3.62092299 25.1865015,3.83431382 C25.9009681,6.22715088 27.7728491,8.09903185 30.1656862,8.81349854 C31.8881665,9.32780637 32.8675839,11.1410815 32.353276,12.8635618 C32.2895606,13.0769526 32.2041132,13.283241 32.0982767,13.4791847 C30.9114896,15.6763803 30.9114896,18.3236197 32.0982767,20.5208153 C32.9525837,22.1024634 32.3629572,24.0771951 30.7813091,24.9315021 C30.5853654,25.0373386 30.379077,25.122786 30.1656862,25.1865015 C27.7728491,25.9009681 25.9009681,27.7728491 25.1865015,30.1656862 C24.6721936,31.8881665 22.8589185,32.8675839 21.1364382,32.353276 C20.9230474,32.2895606 20.716759,32.2041132 20.5208153,32.0982767 C18.3236197,30.9114896 15.6763803,30.9114896 13.4791847,32.0982767 Z" id="星形" fill="#FDD500"></path>
                <g id="形状结合" fill-rule="nonzero">
                    <use fill-opacity="0.503086757" fill="#FDD500" xlink:href="#path-1"></use>
                    <use fill="black" fill-opacity="1" filter="url(#filter-2)" xlink:href="#path-1"></use>
                </g>
            </g>
        </g>
    </g>
</svg>