<?xml version="1.0" encoding="UTF-8"?>
<svg width="32px" height="32px" viewBox="0 0 32 32" version="1.1" xmlns="http://www.w3.org/2000/svg" xmlns:xlink="http://www.w3.org/1999/xlink">
    <title>流量</title>
    <defs>
        <linearGradient x1="50%" y1="0%" x2="50%" y2="100%" id="linearGradient-1">
            <stop stop-color="#61E2FE" offset="0%"></stop>
            <stop stop-color="#0D89BD" offset="100%"></stop>
        </linearGradient>
    </defs>
    <g id="来量吧" stroke="none" stroke-width="1" fill="none" fill-rule="evenodd">
        <g id="设备详情" transform="translate(-27.000000, -337.000000)" fill="url(#linearGradient-1)" fill-rule="nonzero">
            <g id="编组-6" transform="translate(15.000000, 184.000000)">
                <g id="编组-5" transform="translate(12.000000, 153.000000)">
                    <path d="M16,0 C24.836,0 32,7.166 32,16 C32,24.837 24.834,32 16,32 C7.163,32 0,24.838 0,16 C0,7.165 7.162,0 16,0 Z M14.057554,9 L8.11690647,9 C7.50179855,9 7,9.48709315 7,10.0841751 L7,21.9158249 C7,22.5129069 7.50179855,23 8.11690647,23 L20.3057554,23 C20.5971223,23 20.823741,22.7800224 20.823741,22.4971942 C20.823741,22.2143659 20.5971223,22.0258137 20.3057554,22.0258137 L8.11690647,22.0258137 C8.06834533,22.0258137 8.01978417,21.9786756 8.01978417,21.9315376 L8.01978417,10.0998878 C8.01978417,10.0527497 8.06834531,10.0056117 8.11690647,10.0056117 L13.8633094,10.0056117 L15.8057554,11.5140292 C15.9028777,11.5768799 16.0161871,11.6240179 16.1294964,11.624018 L23.8669065,11.624018 C23.9154676,11.624018 23.9640288,11.671156 23.9640288,11.7182941 L23.9640288,18.5533109 C23.9640288,18.8361392 24.1906475,19.0561167 24.4820144,19.0561167 C24.7733813,19.0561167 25,18.8361392 25,18.5533109 L25,11.7025814 C25,11.1054994 24.4982014,10.6184063 23.8830935,10.6184063 L16.323741,10.6184063 L14.381295,9.10998879 C14.2841727,9.03142539 14.1708633,9 14.057554,9 Z M24.2499709,22.0669906 C24.0952555,22.1563114 23.999964,22.3213792 24,22.5 C23.999964,22.6786208 24.0952555,22.8436886 24.2499709,22.9330094 C24.4046862,23.0223302 24.5953138,23.0223302 24.7500291,22.9330094 C24.9047445,22.8436886 25.000036,22.6786208 25,22.5 C25.000036,22.3213792 24.9047445,22.1563114 24.7500291,22.0669906 C24.5953138,21.9776698 24.4046862,21.9776698 24.2499709,22.0669906 Z M22.5,22 C22.2238576,22 22,22.2238576 22,22.5 C22,22.7761424 22.2238576,23 22.5,23 C22.7761424,23 23,22.7761424 23,22.5 C23,22.2238576 22.7761424,22 22.5,22 Z M24.2499709,20.0669906 C24.0952555,20.1563114 23.999964,20.3213792 24,20.5 C23.999964,20.6786208 24.0952555,20.8436886 24.2499709,20.9330094 C24.4046862,21.0223302 24.5953138,21.0223302 24.7500291,20.9330094 C24.9047445,20.8436886 25.000036,20.6786208 25,20.5 C25.000036,20.3213792 24.9047445,20.1563114 24.7500291,20.0669906 C24.5953138,19.9776698 24.4046862,19.9776698 24.2499709,20.0669906 Z M14.0677966,13.1803253 L12.1525424,15.3460686 C11.9491525,15.576059 11.9491525,15.9593764 12.1525424,16.2085327 C12.3559322,16.4385231 12.6949153,16.4385231 12.9152542,16.2085327 L13.9152542,15.0777464 L13.9152542,20.3866922 C13.9152542,20.7316778 14.1694915,21 14.4576271,21 C14.7457627,21 15,20.7316778 15,20.3866922 L15,13.6019745 C15,13.3528182 14.8644068,13.1419936 14.6610169,13.0461642 C14.4576271,12.9503349 14.2372881,13.0078325 14.0677966,13.1803253 Z M17.5454546,13 C17.2556818,13 17,13.2685851 17,13.6139089 L17,20.4052758 C17,20.6546763 17.1363636,20.8657074 17.3409091,20.9616307 C17.4090909,21 17.4772727,21 17.5454546,21 C17.6818182,21 17.8181818,20.9424461 17.9204546,20.8273381 L19.8465909,18.6594724 C20.0511364,18.4292566 20.0511364,18.0455636 19.8465909,17.7961631 C19.6420455,17.5659473 19.3011364,17.5659473 19.0795455,17.7961631 L18.0738636,18.9280576 L18.0738636,13.6139089 C18.0909091,13.2685851 17.8522727,13 17.5454546,13 Z" id="形状"></path>
                </g>
            </g>
        </g>
    </g>
</svg>
