<?xml version="1.0" encoding="UTF-8"?>
<svg width="32px" height="32px" viewBox="0 0 32 32" version="1.1" xmlns="http://www.w3.org/2000/svg" xmlns:xlink="http://www.w3.org/1999/xlink">
    <title>形状</title>
    <defs>
        <linearGradient x1="50%" y1="0%" x2="50%" y2="100%" id="linearGradient-1">
            <stop stop-color="#61E2FE" offset="0%"></stop>
            <stop stop-color="#0D89BD" offset="100%"></stop>
        </linearGradient>
    </defs>
    <g id="来量吧" stroke="none" stroke-width="1" fill="none" fill-rule="evenodd">
        <g id="设备详情" transform="translate(-27.000000, -284.000000)" fill="url(#linearGradient-1)" fill-rule="nonzero">
            <g id="编组-6" transform="translate(15.000000, 184.000000)">
                <g id="编组-5" transform="translate(12.000000, 100.000000)">
                    <path d="M16,0 C24.836,0 32,7.166 32,16 C32,24.837 24.834,32 16,32 C7.163,32 0,24.838 0,16 C0,7.165 7.162,0 16,0 Z M9.1277102,11 L5.65500753,11 C5.2239342,11 5.00563424,11.1846764 5.00010766,11.5540293 L5.00387578,11.6593407 L5.00387578,20.4505495 C5.00387578,20.8168498 5.20283271,21 5.60074655,21 C5.9222931,21 6.11522102,20.8552887 6.17953033,20.5658662 L6.19761733,20.4505495 L6.19761733,16.5494505 L8.80214432,16.5494505 C9.16388419,16.5494505 9.36284111,16.3663004 9.39901509,16 C9.36686044,15.6743997 9.20608717,15.4790395 8.91669528,15.4139194 L8.80214432,15.3956044 L6.19761733,15.3956044 L6.19761733,12.1538462 L9.1277102,12.1538462 C9.48945006,12.1538462 9.68840698,11.952381 9.72458097,11.5494505 C9.69242632,11.2564103 9.53165304,11.079139 9.24226116,11.0176367 L9.1277102,11 Z M13.0051359,11 L10.7261748,11 C10.2951015,11 10.0768015,11.1846764 10.0712749,11.5540293 L10.0750431,11.6593407 L10.0750431,20.4505495 C10.0750431,20.8168498 10.274,21 10.6719138,21 C10.9934604,21 11.1863883,20.8552887 11.2506976,20.5658662 L11.2687846,20.4505495 L11.2687846,16.6043956 L15.0670531,20.7802198 C15.2117491,20.9267399 15.392619,21 15.6096629,21 C15.9352288,21 16.1160987,20.8717949 16.1522727,20.6153846 C16.1522727,20.4688645 16.10597,20.3223443 16.0133646,20.1758242 L15.9352288,20.0659341 L12.788092,16.5494505 L13.3307018,16.5494505 C15.0670531,16.4761905 15.9533158,15.5238095 15.9894898,13.6923077 C15.8508228,12.1477411 14.9314321,11.2591766 13.2313175,11.026614 L13.0051359,11 Z M20.8436131,11 L17.3166495,11 C16.8855762,11 16.6672762,11.1846764 16.6617496,11.5540293 L16.6655177,11.6593407 L16.6655177,20.3406593 C16.6323583,20.7435897 16.8119722,20.9618437 17.2043594,20.9954212 L17.3166495,21 L20.8436131,21 C21.205353,21 21.4043099,20.8168498 21.4404839,20.4505495 C21.4083293,20.1249491 21.247556,19.9295889 20.9581641,19.8644689 L20.8436131,19.8461538 L17.8592593,19.8461538 L17.8592593,16.5494505 L20.5723082,16.5494505 C20.9340481,16.5494505 21.133005,16.3663004 21.169179,16 C21.1370244,15.6743997 20.9762511,15.4790395 20.6868592,15.4139194 L20.5723082,15.3956044 L17.8592593,15.3956044 L17.8592593,12.1538462 L20.8436131,12.1538462 C21.205353,12.1538462 21.4043099,11.952381 21.4404839,11.5494505 C21.4083293,11.2564103 21.247556,11.079139 20.9581641,11.0176367 L20.8436131,11 Z M26.4031292,11 L22.8761656,11 C22.4450923,11 22.2267923,11.1846764 22.2212657,11.5540293 L22.2250338,11.6593407 L22.2250338,20.3406593 C22.1918743,20.7435897 22.3714882,20.9618437 22.7638755,20.9954212 L22.8761656,21 L26.4031292,21 C26.7648691,21 26.963826,20.8168498 27,20.4505495 C26.9678453,20.1249491 26.8070721,19.9295889 26.5176802,19.8644689 L26.4031292,19.8461538 L23.4187754,19.8461538 L23.4187754,16.5494505 L26.1318243,16.5494505 C26.4935642,16.5494505 26.6925211,16.3663004 26.7286951,16 C26.6965404,15.6743997 26.5357672,15.4790395 26.2463753,15.4139194 L26.1318243,15.3956044 L23.4187754,15.3956044 L23.4187754,12.1538462 L26.4031292,12.1538462 C26.7648691,12.1538462 26.963826,11.952381 27,11.5494505 C26.9678453,11.2564103 26.8070721,11.079139 26.5176802,11.0176367 L26.4031292,11 Z M12.950875,12.043956 C14.0722685,12.1172161 14.6872263,12.6849817 14.7957482,13.7472527 C14.830278,14.971029 14.2715244,15.5940423 13.1194876,15.6162928 L12.950875,15.6153846 L11.2687846,15.6153846 L11.2687846,12.043956 L12.950875,12.043956 Z" id="形状"></path>
                </g>
            </g>
        </g>
    </g>
</svg>