<?xml version="1.0" encoding="UTF-8"?>
<svg width="40px" height="40px" viewBox="0 0 40 40" version="1.1" xmlns="http://www.w3.org/2000/svg" xmlns:xlink="http://www.w3.org/1999/xlink">
    <title>wentijieda</title>
    <g id="来量吧" stroke="none" stroke-width="1" fill="none" fill-rule="evenodd">
        <g id="设备详情" transform="translate(-34.000000, -408.000000)">
            <g id="常见问题-+-在线客服-+-关于我们-+-更多-+-wentijieda-+-kefu-+-women-+-gengduo-蒙版" transform="translate(15.000000, 393.000000)">
                <g id="wentijieda" transform="translate(19.000000, 15.000000)">
                    <rect id="矩形" x="0" y="0" width="40" height="40"></rect>
                    <path d="M34.9631081,26.6198 C34.9631081,26.5994 34.9746368,26.5824 34.9746368,26.5608667 L34.9746368,6.57453333 C34.9746368,4.60366667 33.3732995,3 31.4053493,3 L8.56813466,3 C6.60133733,3 5,4.60366667 5,6.57453333 L5,33.4254667 C5,35.3963333 6.60133733,37 8.56813466,37 L25.8623472,37 C26.1399231,37 26.4081809,36.901571 26.6174775,36.7223333 L32.1604796,31.9895333 C32.4863399,31.728486 32.64184,31.3137763 32.5662857,30.9072723 C32.4907314,30.5007682 32.1960998,30.16691 31.7973904,30.036008 C31.3986811,29.9051059 30.9590985,29.9979111 30.650219,30.2782 L26.9045423,33.4764667 L26.9045423,29.2423333 C26.9045423,28.5204 27.4706018,27.9333333 28.1680885,27.9333333 L33.8471294,27.9333333 C34.4838422,27.9333333 35,27.4259227 35,26.8 C34.9988471,26.7365333 34.9723311,26.681 34.9631081,26.6198 Z M24.598801,29.2412 L24.598801,34.7333333 L8.56813466,34.7333333 C7.87180078,34.7333333 7.3057413,34.1462667 7.3057413,33.4254667 L7.3057413,6.57453333 C7.3057413,5.85373333 7.87180078,5.26666667 8.56813466,5.26666667 L31.4053493,5.26666667 C32.1028361,5.26666667 32.6688955,5.85373333 32.6688955,6.57453333 L32.6688955,25.6666667 L28.1680885,25.6666667 C26.2001383,25.6666667 24.598801,27.2703333 24.598801,29.2412 Z" id="形状" fill="#666666" fill-rule="nonzero"></path>
                    <path d="M17.6815771,28.5 C17.6815771,29.4388841 18.4558138,30.2 19.4108831,30.2 C20.3659524,30.2 21.1401891,29.4388841 21.1401891,28.5 C21.1401891,27.5611159 20.3659524,26.8 19.4108831,26.8 C18.4558138,26.8 17.6815771,27.5611159 17.6815771,28.5 L17.6815771,28.5 Z" id="路径" fill="#666666" fill-rule="nonzero"></path>
                    <path d="M19.2102836,8.66666667 C15.5975747,8.66666667 12.6688955,11.5457145 12.6688955,15.0972 C12.6688955,15.7231227 13.1850533,16.2305333 13.8217662,16.2305333 C14.4584791,16.2305333 14.9746368,15.7231227 14.9746368,15.0972 C15.0283216,12.835404 16.9088707,11.0293565 19.2102836,11.0293565 C21.5116965,11.0293565 23.3922456,12.835404 23.4459304,15.0972 C23.4459304,17.3967333 21.5494582,19.541 19.2102836,19.541 C18.5735707,19.541 18.057413,20.0484106 18.057413,20.6743333 L18.057413,22.8990667 C18.057413,23.5249894 18.5735707,24.0324 19.2102836,24.0324 C19.8469965,24.0324 20.3631543,23.5249894 20.3631543,22.8990667 L20.3631543,21.7079333 C23.4263316,21.1718667 25.7516717,18.2614667 25.7516717,15.0972 C25.7516717,11.5457145 22.8229925,8.66666667 19.2102836,8.66666667 Z" id="路径" fill="#666666" fill-rule="nonzero"></path>
                </g>
            </g>
        </g>
    </g>
</svg>
