<?xml version="1.0" encoding="UTF-8"?>
<svg width="26px" height="26px" viewBox="0 0 26 26" version="1.1" xmlns="http://www.w3.org/2000/svg" xmlns:xlink="http://www.w3.org/1999/xlink">
	<title>
		矩形
	</title>
	<defs>
		<rect id="path-1" x="0" y="0" width="375" height="50">
		</rect>
		<filter x="0.0%" y="0.0%" width="100.0%" height="100.0%" filterUnits="objectBoundingBox" id="filter-2">
			<feOffset dx="0" dy="0" in="SourceAlpha" result="shadowOffsetInner1">
			</feOffset>
			<feComposite in="shadowOffsetInner1" in2="SourceAlpha" operator="arithmetic" k2="-1" k3="1" result="shadowInnerInner1">
			</feComposite>
			<feColorMatrix values="0 0 0 0 0.898039216   0 0 0 0 0.898039216   0 0 0 0 0.898039216  0 0 0 1 0" type="matrix" in="shadowInnerInner1">
			</feColorMatrix>
		</filter>
	</defs>
	<g id="广电卡5G" stroke="none" stroke-width="1" fill="none" fill-rule="evenodd">
		<g id="首页-/-广电5G" transform="translate(-83.000000, -741.000000)">
			<g id="底部标签栏-/-3栏" transform="translate(0.000000, 737.000000)">
				<g id="矩形">
					<use fill-rule="evenodd" xlink:href="#path-1">
					</use>
					<use fill="black" fill-opacity="1" filter="url(#filter-2)" xlink:href="#path-1">
					</use>
				</g>
				<rect id="矩形" x="83" y="4" width="26" height="26">
				</rect>
				<rect id="矩形" x="83" y="4" width="26" height="26">
				</rect>
				<g id="zhuye" transform="translate(84.000000, 4.000000)" fill-rule="nonzero">
					<path d="M18.414753,12.1689017 C18.4139912,12.1660215 18.412431,12.1634162 18.410253,12.1613873 C18.2649164,11.9401475 18.0880417,11.741413 17.8852533,11.5715029 L17.4570035,11.2085549 L9.05700805,4.09011561 C8.43300839,3.56034682 7.60650883,3.30109827 6.78375928,3.30917262 L1.36726219,7.90219653 L0.939012426,8.26589595 C0.736223992,8.43580607 0.559349368,8.63454061 0.414012709,8.85578035 C0.41183471,8.85780926 0.410274545,8.86041455 0.409512711,8.8632948 C0.204619137,9.2083373 0.0731183226,9.59208757 0.0232629191,9.99046243 C0.00751214173,10.1163359 -0.000253446743,10.2430836 6.30563096e-06,10.3699422 L6.30563096e-06,23.1948555 C6.30563096e-06,24.7360694 1.1677623,26 2.59426153,26 L18.8250028,26 L18.8250028,13.6763006 C18.8250028,13.5494261 18.8170043,13.4226783 18.8010028,13.2968208 C18.751248,12.8981868 18.6197438,12.5141709 18.414753,12.1689017 Z" id="路径" fill="#2C66A5">
					</path>
					<path d="M23.976,9.99421965 C23.9261446,9.59584479 23.7946438,9.21209452 23.5897502,8.86705202 C23.5888145,8.86424867 23.5872787,8.86168404 23.5852502,8.85953757 C23.4399136,8.63829784 23.2630389,8.43956329 23.0602505,8.26965318 L22.6320007,7.9067052 L14.2320053,0.788265896 C13.6200056,0.26300578 12.810006,0 12.0000063,0 C11.1900069,0 10.3800073,0.260751445 9.76575767,0.78150289 L1.3657622,7.8999422 L0.939012426,8.26589595 C0.736223992,8.43580607 0.559349368,8.63454061 0.414012709,8.85578035 C0.41198427,8.85792682 0.410448451,8.86049145 0.409512711,8.8632948 C0.204619137,9.2083373 0.0731183226,9.59208757 0.0232629191,9.99046243 C0.00751214173,10.1163359 -0.000253446743,10.2430836 6.30563096e-06,10.3699422 L6.30563096e-06,23.1948555 C6.30563096e-06,24.7360694 1.1677623,26 2.59426153,26 L21.4057514,26 C22.8307506,26 24.0000063,24.7383237 24.0000063,23.1971098 L24.0000063,10.3699422 C24.0000063,10.2443214 23.991844,10.1188335 23.976,9.99421965 Z M9.9000076,23.5953757 L9.9000076,15.4376879 L14.1750053,15.4376879 L14.1750053,23.5953757 L9.9000076,23.5953757 Z M21.6000013,23.1971098 C21.6000013,23.4623699 21.4402514,23.5886127 21.4057514,23.5953757 L16.575004,23.5953757 L16.575004,15.2873988 C16.5712974,14.0439054 15.5661066,13.0367774 14.3250052,13.0330636 L9.75000768,13.0330636 C8.50890625,13.0367774 7.50371554,14.0439054 7.50000889,15.2873988 L7.50000889,23.5953757 L2.59426153,23.5953757 C2.55976155,23.5886127 2.40001158,23.4623699 2.40001158,23.1971098 L2.40001158,10.3699422 C2.40001158,10.3448016 2.40175418,10.3196914 2.40526164,10.2947977 C2.4117249,10.2428876 2.42588067,10.1922338 2.44726161,10.1445087 C2.45917006,10.1308948 2.47221749,10.118325 2.48626159,10.1069364 L2.91376136,9.74398844 L11.3137568,2.62554913 C11.726147,2.34208399 12.2701159,2.34208399 12.6825061,2.62554913 L21.0825016,9.74398844 L21.5100013,10.1069364 L21.5137513,10.1069364 C21.5276152,10.118528 21.5406474,10.1310832 21.5527513,10.1445087 C21.5740078,10.1922789 21.5881583,10.2429138 21.5947513,10.2947977 C21.5980954,10.3197084 21.6000013,10.3448076 21.6000013,10.3699422 L21.6000013,23.1971098 Z" id="形状" fill="#333333">
					</path>
				</g>
			</g>
		</g>
	</g>
</svg>
