<?xml version="1.0" encoding="UTF-8"?>
<svg width="40px" height="40px" viewBox="0 0 40 40" version="1.1" xmlns="http://www.w3.org/2000/svg" xmlns:xlink="http://www.w3.org/1999/xlink">
    <title>矩形</title>
    <g id="来量吧" stroke="none" stroke-width="1" fill="none" fill-rule="evenodd">
        <g id="设备详情" transform="translate(-301.000000, -408.000000)">
            <g id="常见问题-+-在线客服-+-关于我们-+-更多-+-wentijieda-+-kefu-+-women-+-gengduo-蒙版" transform="translate(15.000000, 393.000000)">
                <g id="gengduo" transform="translate(286.000000, 15.000000)">
                    <rect id="矩形" x="0" y="0" width="40" height="40"></rect>
                    <path d="M6.96758509,16 C9.15882183,16 10.9351702,17.790861 10.9351702,20 C10.9351702,22.209139 9.15882183,24 6.96758509,24 C4.77634835,24 3,22.209139 3,20 C3,17.790861 4.77634835,16 6.96758509,16 Z M20,16 C22.1912367,16 23.9675851,17.790861 23.9675851,20 C23.9675851,22.209139 22.1912367,24 20,24 C17.8087633,24 16.0324149,22.209139 16.0324149,20 C16.0324149,17.790861 17.8087633,16 20,16 Z M33.0324149,16 C35.2236516,16 37,17.790861 37,20 C37,22.209139 35.2236516,24 33.0324149,24 C30.8411782,24 29.0648298,22.209139 29.0648298,20 C29.0648298,17.790861 30.8411782,16 33.0324149,16 Z" id="形状结合" fill="#fff" fill-rule="nonzero"></path>
                </g>
            </g>
        </g>
    </g>
</svg>
