<?xml version="1.0" encoding="UTF-8"?>
<svg width="26px" height="26px" viewBox="0 0 26 26" version="1.1" xmlns="http://www.w3.org/2000/svg" xmlns:xlink="http://www.w3.org/1999/xlink">
	<title>
		矩形
	</title>
	<defs>
		<rect id="path-1" x="0" y="0" width="375" height="50">
		</rect>
		<filter x="0.0%" y="0.0%" width="100.0%" height="100.0%" filterUnits="objectBoundingBox" id="filter-2">
			<feOffset dx="0" dy="0" in="SourceAlpha" result="shadowOffsetInner1">
			</feOffset>
			<feComposite in="shadowOffsetInner1" in2="SourceAlpha" operator="arithmetic" k2="-1" k3="1" result="shadowInnerInner1">
			</feComposite>
			<feColorMatrix values="0 0 0 0 0.898039216   0 0 0 0 0.898039216   0 0 0 0 0.898039216  0 0 0 1 0" type="matrix" in="shadowInnerInner1">
			</feColorMatrix>
		</filter>
	</defs>
	<g id="广电卡5G" stroke="none" stroke-width="1" fill="none" fill-rule="evenodd">
		<g id="首页-/-广电5G" transform="translate(-267.000000, -741.000000)">
			<g id="底部标签栏-/-3栏" transform="translate(0.000000, 737.000000)">
				<g id="矩形">
					<use fill-rule="evenodd" xlink:href="#path-1">
					</use>
					<use fill="black" fill-opacity="1" filter="url(#filter-2)" xlink:href="#path-1">
					</use>
				</g>
				<rect id="矩形" x="267" y="4" width="26" height="26">
				</rect>
				<rect id="矩形" x="267" y="4" width="26" height="26">
				</rect>
				<g id="wode" transform="translate(267.000000, 5.000000)" fill-rule="nonzero">
					<path d="M21.7566522,21.8233422 C21.7489115,21.5782493 21.810837,21.3442971 21.9230769,21.1289125 C21.6328012,20.5681698 21.3115627,20.0222812 20.9671021,19.4912467 C20.7542332,19.1644562 20.537494,18.8413793 20.3362361,18.5071618 C20.1930334,18.269496 20.0459603,18.0355438 19.8834059,17.8127321 C19.8485728,17.7718833 19.8098694,17.734748 19.7750363,17.6976127 C19.3570392,17.7087533 18.9467828,17.4859416 18.6526367,17.2222812 C18.4126754,17.0106101 18.2694727,16.7209549 18.2036768,16.4201592 C16.6710208,15.9559682 14.9525883,15.6923077 13.1335269,15.6923077 C7.14610547,15.6923077 2.2191582,18.5220159 1.61538462,22.1538462 L21.7914852,22.1538462 C21.7721335,22.0498674 21.7605225,21.9384615 21.7566522,21.8233422 L21.7566522,21.8233422 Z" id="路径" fill="#2C66A5" transform="translate(11.769231, 18.923077) scale(-1, 1) translate(-11.769231, -18.923077) ">
					</path>
					<path d="M5.30769231,9.23076923 C5.30769231,11.2094709 6.36331706,13.0378667 8.07692304,14.0272176 C9.79052902,15.0165685 11.9017787,15.0165685 13.6153846,14.0272176 C15.3289906,13.0378667 16.3846154,11.2094709 16.3846154,9.23076923 C16.3846154,7.25206752 15.3289906,5.42367171 13.6153846,4.43432084 C11.9017787,3.44496997 9.79052902,3.44496997 8.07692304,4.43432084 C6.36331706,5.42367171 5.30769231,7.25206752 5.30769231,9.23076923 L5.30769231,9.23076923 Z" id="路径" fill="#2C66A5" transform="translate(10.846154, 9.230769) scale(-1, 1) translate(-10.846154, -9.230769) ">
					</path>
					<path d="M12.921184,0 C17.4945184,0 21.2046738,3.69404743 21.2046738,8.24752631 C21.2046738,11.0256008 19.8152584,13.4795037 17.6913838,14.9835087 C23.7979966,16.3405057 25.8461538,20.3474164 25.8461538,21.7684938 L25.8461538,23.040708 C25.8481347,23.3123403 25.7230207,23.5601824 25.5222431,23.7358815 C25.3673926,23.8771721 25.1674462,23.9704596 24.9466776,23.9916386 C24.9013006,23.9970861 24.8551414,24 24.8082876,24 L1.04168669,24 L1.01894575,23.9997333 C1.01121317,23.9999108 1.00345912,24 0.995684556,24 C0.671424243,24 0.382829515,23.8448049 0.200905009,23.6051111 C0.0748453521,23.4468752 0,23.2514186 0,23.040708 L0,21.7684938 C0,20.2795665 2.21473561,16.4686666 8.25698865,15.0588974 C6.08011177,13.5699702 4.63769422,11.0783729 4.63769422,8.24752631 C4.63769422,3.69404743 8.3478496,0 12.921184,0 Z M12.9628286,16.4799749 C8.52908061,16.4799749 2.51666965,19.1873641 2.02377478,22.0008225 L23.7980566,22.0006429 C23.2270119,19.5703232 18.4233055,16.4799749 12.9628286,16.4799749 Z M12.921184,1.96764567 C9.44575272,1.96764567 6.62906333,4.77210617 6.62906333,8.23244856 C6.62906333,11.692791 9.44575272,14.4972515 12.921184,14.4972515 C16.3966152,14.4972515 19.2133046,11.692791 19.2133046,8.23244856 C19.2133046,4.77210617 16.3966152,1.96764567 12.921184,1.96764567 Z" id="形状结合" fill="#333333">
					</path>
				</g>
			</g>
		</g>
	</g>
</svg>
