<?xml version="1.0" encoding="UTF-8"?>
<svg width="26px" height="26px" viewBox="0 0 26 26" version="1.1" xmlns="http://www.w3.org/2000/svg" xmlns:xlink="http://www.w3.org/1999/xlink">
	<title>
		底部标签栏 / 3栏
	</title>
	<defs>
		<rect id="path-1" x="0" y="0" width="375" height="50">
		</rect>
		<filter x="0.0%" y="0.0%" width="100.0%" height="100.0%" filterUnits="objectBoundingBox" id="filter-2">
			<feOffset dx="0" dy="0" in="SourceAlpha" result="shadowOffsetInner1">
			</feOffset>
			<feComposite in="shadowOffsetInner1" in2="SourceAlpha" operator="arithmetic" k2="-1" k3="1" result="shadowInnerInner1">
			</feComposite>
			<feColorMatrix values="0 0 0 0 0.898039216   0 0 0 0 0.898039216   0 0 0 0 0.898039216  0 0 0 1 0" type="matrix" in="shadowInnerInner1">
			</feColorMatrix>
		</filter>
	</defs>
	<g id="广电卡5G" stroke="none" stroke-width="1" fill="none" fill-rule="evenodd">
		<g id="首页-/-广电5G" transform="translate(-267.000000, -741.000000)">
			<g id="底部标签栏-/-3栏" transform="translate(0.000000, 737.000000)">
				<g id="矩形">
					<use fill-rule="evenodd" xlink:href="#path-1">
					</use>
					<use fill="black" fill-opacity="1" filter="url(#filter-2)" xlink:href="#path-1">
					</use>
				</g>
				<rect id="矩形" x="267" y="4" width="26" height="26">
				</rect>
				<g id="wode" transform="translate(267.000000, 5.000000)" fill="#999999" fill-rule="nonzero">
					<path d="M12.921184,0 C17.4945184,0 21.2046738,3.69404743 21.2046738,8.24752631 C21.2046738,11.0256008 19.8152584,13.4795037 17.6913838,14.9835087 C23.7979966,16.3405057 25.8461538,20.3474164 25.8461538,21.7684938 L25.8461538,23.040708 C25.8481347,23.3123403 25.7230207,23.5601824 25.5222431,23.7358815 C25.3673926,23.8771721 25.1674462,23.9704596 24.9466776,23.9916386 C24.9013006,23.9970861 24.8551414,24 24.8082876,24 L1.04168669,24 L1.01894575,23.9997333 C1.01121317,23.9999108 1.00345912,24 0.995684556,24 C0.671424243,24 0.382829515,23.8448049 0.200905009,23.6051111 C0.0748453521,23.4468752 0,23.2514186 0,23.040708 L0,21.7684938 C0,20.2795665 2.21473561,16.4686666 8.25698865,15.0588974 C6.08011177,13.5699702 4.63769422,11.0783729 4.63769422,8.24752631 C4.63769422,3.69404743 8.3478496,0 12.921184,0 Z M12.9628286,16.4799749 C8.52908061,16.4799749 2.51666965,19.1873641 2.02377478,22.0008225 L23.7980566,22.0006429 C23.2270119,19.5703232 18.4233055,16.4799749 12.9628286,16.4799749 Z M12.921184,1.96764567 C9.44575272,1.96764567 6.62906333,4.77210617 6.62906333,8.23244856 C6.62906333,11.692791 9.44575272,14.4972515 12.921184,14.4972515 C16.3966152,14.4972515 19.2133046,11.692791 19.2133046,8.23244856 C19.2133046,4.77210617 16.3966152,1.96764567 12.921184,1.96764567 Z" id="形状结合">
					</path>
				</g>
			</g>
		</g>
	</g>
</svg>
