<?xml version="1.0" encoding="UTF-8"?>
<svg width="30px" height="30px" viewBox="0 0 30 30" version="1.1" xmlns="http://www.w3.org/2000/svg" xmlns:xlink="http://www.w3.org/1999/xlink">
	<title>
		矩形
	</title>
	<g id="广电卡5G" stroke="none" stroke-width="1" fill="none" fill-rule="evenodd">
		<g id="首页-/-广电5G" transform="translate(-45.000000, -218.000000)">
			<rect x="0" y="0" width="375" height="812">
			</rect>
			<rect id="矩形" x="15" y="173" width="345" height="130" rx="8">
			</rect>
			<rect id="矩形" x="45" y="218" width="30" height="30">
			</rect>
			<g id="dingdan" transform="translate(48.000000, 218.000000)" fill-rule="nonzero">
				<path d="M15.7654179,0.152504119 C16.916692,-0.495785035 17.9948559,1.09251567 16.8435818,1.74080482 C15.6923077,2.38909398 12.5302992,3.42191302 11.0437961,3.42191302 L4.46162601,3.40181943 C3.03738233,3.46928035 1.92519758,4.46826241 1.8501887,5.67459268 L1.84615385,25.7559611 C1.84615385,27.0197574 2.98651648,28.0888742 4.46162601,28.1587444 L4.61538462,28.1623749 L19.3846154,28.1623749 C20.881853,28.1623749 22.0721235,27.1353847 22.1498113,25.8859712 L22.1538462,25.7559611 L22.1538462,5.80460279 C22.1538462,4.54080644 21.0134835,3.47168967 19.538374,3.40181943 C19.7389548,3.39736491 19.408832,3.39615475 18.5480055,3.39818896 C17.2567658,3.40124028 17.1699652,1.55513483 18.5480055,1.56056386 C19.9260458,1.56599289 18.7192072,1.56056386 19.3846154,1.56056386 C21.8566697,1.56056386 23.9049599,3.35461993 23.9967871,5.64408519 L24,25.7559611 C24,28.0677663 22.0078929,29.9143634 19.5563775,29.9971055 L19.3846154,30 L4.61538462,30 C2.14333027,30 0.0950401234,28.2059439 0.00321291353,25.9164787 L0,25.7559611 L0,5.80460279 C0,3.4927976 1.99210709,1.6462005 4.44362254,1.56345838 C8.10337315,1.56538806 10.3741623,1.56538806 11.2559899,1.56345838 C12.5787313,1.56056386 13.9628459,0.974315049 15.7654179,0.152504119 Z" id="路径" fill="#000000">
				</path>
				<path d="M17.915449,26.4563286 C19.2400497,26.4563286 20.2930777,25.6273617 20.3618078,24.618859 C20.3618078,24.618859 20.4007541,23.9228485 21.2964874,24.0070704 C21.8464059,24.0587768 22,24.3651789 22,24.7984 C22,26.664445 20.1986361,27.9332121 18.0297892,28 C18.0297892,28 17.1015004,28 17.0063574,27.2718199 C16.9112145,26.5436397 17.915449,26.4563286 17.915449,26.4563286 Z" id="路径" fill="#2C66A5">
				</path>
				<path d="M4.02631579,13 C3.45949723,13 3,12.5522847 3,12 C3,11.4477153 3.45949723,11 4.02631579,11 L14.9736842,11 C15.5405028,11 16,11.4477153 16,12 C16,12.5522847 15.5405028,13 14.9736842,13 L4.02631579,13 Z" id="路径" fill="#000000">
				</path>
				<path d="M4.03846154,20 C3.46493507,20 3,19.5522847 3,19 C3,18.4477153 3.46493507,18 4.03846154,18 L10.9615385,18 C11.5350649,18 12,18.4477153 12,19 C12,19.5522847 11.5350649,20 10.9615385,20 L4.03846154,20 Z" id="路径" fill="#000000">
				</path>
			</g>
		</g>
	</g>
</svg>
