<svg t="1729498312522" class="icon" viewBox="0 0 1024 1024" version="1.1" xmlns="http://www.w3.org/2000/svg" p-id="9276" width="200" height="200"><path d="M512 1024C229.237153 1024 0 794.762847 0 512S229.237153 0 512 0 1024 229.237153 1024 512 794.762847 1024 512 1024z m0.433898-798.372881c-11.003661 0-21.799051 0.694237-32.386169 1.909152a285.591864 285.591864 0 0 0-74.37017 18.813831S598.901153 436.883525 604.038508 443.964746V240.813559A285.470373 285.470373 0 0 0 512.433898 225.627119z m201.797424 82.787796a281.322305 281.322305 0 0 0-24.246237-21.469288 285.157966 285.157966 0 0 0-65.900475-39.085559s1.423186 270.80461 0 279.430508l144.227797-143.672407a284.029831 284.029831 0 0 0-54.063729-75.203254h-0.017356z m63.297085 97.74861S586.387525 598.658169 579.236881 603.795525h203.932204c10.066441-29.400949 15.203797-60.242441 15.203796-91.292203 0-10.916881-0.694237-21.694915-1.96122-32.282034a281.495864 281.495864 0 0 0-18.883254-74.057763zM493.932475 625.160678l144.227796 143.707119a284.984407 284.984407 0 0 0 75.550373-53.872814 284.429017 284.429017 0 0 0 60.711051-89.851661s-271.759186 1.405831-280.454509 0.017356h-0.017355z m-73.970983-45.090712V783.27322a284.394305 284.394305 0 0 0 123.956067 13.207865 285.210034 285.210034 0 0 0 74.352814-18.813831c0.034712 0-193.136814-190.498712-198.291526-197.597288h-0.017355z m-20.271729-84.749017l-144.227797 143.620339c2.707525 5.501831 5.623322 10.882169 8.712678 16.141017a279.378441 279.378441 0 0 0 69.632 80.583593 284.168678 284.168678 0 0 0 65.917831 39.102916s-1.457898-270.839322-0.069424-279.499933l0.034712 0.052068z m-164.239187-57.465491A282.797559 282.797559 0 0 0 225.627119 511.652881c0 10.882169 0.694237 21.677559 1.943864 32.229966a278.736271 278.736271 0 0 0 18.917966 74.057763s191.088814-192.477288 198.27417-197.614644H240.796203c-1.943864 5.796881-3.731525 11.628475-5.345627 17.529492z m132.790238-172.969221a284.290169 284.290169 0 0 0-59.357289 45.246916 284.672 284.672 0 0 0-60.745762 89.851661s271.82861-1.440542 280.48922-0.052068l-144.175729-143.672407a322.299661 322.299661 0 0 0-16.21044 8.625898z" fill="#6ACB00" p-id="9277"></path></svg>
