<?xml version="1.0" encoding="UTF-8"?>
<svg width="40px" height="40px" viewBox="0 0 40 40" version="1.1" xmlns="http://www.w3.org/2000/svg" xmlns:xlink="http://www.w3.org/1999/xlink">
    <title>矩形</title>
    <g id="来量吧" stroke="none" stroke-width="1" fill="none" fill-rule="evenodd">
        <g id="设备详情" transform="translate(-212.000000, -408.000000)">
            <g id="常见问题-+-在线客服-+-关于我们-+-更多-+-wentijieda-+-kefu-+-women-+-gengduo-蒙版" transform="translate(15.000000, 393.000000)">
                <g id="women" transform="translate(197.000000, 15.000000)">
                    <rect id="矩形" x="0" y="0" width="40" height="40"></rect>
                    <path d="M2.01383365,34.3330452 C2.9045039,29.2022116 6.27114968,24.9127677 10.9200964,22.9855744 C8.093932,21.0987377 6.38143682,17.8445633 6.37394687,14.3467394 C6.45926276,8.8459021 10.5984239,4.34322929 15.8682803,4.01858937 C21.1381367,3.69394945 25.7574869,7.65707011 26.4640626,13.1091244 C26.9142795,17.0233333 25.1755949,20.8608257 21.9892571,22.9855744 C26.6383094,24.9126174 30.0050119,29.2021336 30.8955199,34.3330452 C30.9752126,34.8387521 30.7899716,35.350352 30.4095752,35.6751302 C30.0291789,35.9999828 29.5114186,36.0885234 29.0513295,35.9075948 C28.5912405,35.7266662 28.2587212,35.3036812 28.1790285,34.7979744 C27.1056495,28.9327856 22.1845543,24.6899545 16.4551283,24.6899545 C10.7257023,24.6899545 5.80460713,28.9327856 4.73122817,34.7979744 C4.59387855,35.5652679 3.89332781,36.0775151 3.15425828,35.951065 C2.41518875,35.8246148 1.90856822,35.1058281 2.01383365,34.3330452 L2.01383365,34.3330452 Z M16.4542252,21.8684269 C20.4249177,21.8031793 23.5991026,18.4072631 23.557527,14.2689272 C23.5159513,10.1305913 20.2742358,6.80468025 16.3031029,6.82598459 C12.3319699,6.84749446 9.12344308,10.2081767 9.12294951,14.3467394 C9.15474611,18.5334338 12.4368482,21.9007804 16.4542252,21.8684269 Z" id="形状" fill="#666666" fill-rule="nonzero"></path>
                    <path d="M36.635553,33.03802 C35.9410801,33.0244892 35.3649663,32.4741264 35.2917567,31.7542885 C34.8174129,27.9184865 32.1644423,24.7624485 28.5781938,23.7676718 C27.7973539,23.5680277 27.2466036,22.8408784 27.2416222,22.0030117 L27.2416222,21.9239549 C27.2233014,21.1765455 27.6409967,20.4919708 28.2982362,20.192235 C30.3365336,19.3396144 31.6953842,17.308206 31.7579159,15.0202001 C31.8204477,12.7321941 30.5747478,10.6234759 28.5863216,9.65133161 C27.9205066,9.32113265 27.6211136,8.50401815 27.9062956,7.79537966 C28.0472736,7.43513512 28.3255214,7.15211704 28.6745176,7.01398743 C29.0235138,6.87585782 29.4118882,6.89503272 29.7467908,7.06692794 C32.3525024,8.36209857 34.1242952,10.9763898 34.4243427,13.9686847 C34.7243901,16.9609795 33.5094999,19.9005327 31.2170196,21.7291364 C34.9251043,23.5405932 37.4822271,27.2078507 37.9901863,31.4427672 C38.0368845,31.846917 37.9154899,32.2525848 37.6566286,32.5574269 C37.3977673,32.862269 37.0261584,33.0371754 36.635553,33.03802 L36.635553,33.03802 Z" id="路径" fill="#666666" fill-rule="nonzero"></path>
                </g>
            </g>
        </g>
    </g>
</svg>
