<?xml version="1.0" encoding="UTF-8"?>
<svg width="30px" height="30px" viewBox="0 0 30 30" version="1.1" xmlns="http://www.w3.org/2000/svg" xmlns:xlink="http://www.w3.org/1999/xlink">
	<title>
		矩形
	</title>
	<g id="广电卡5G" stroke="none" stroke-width="1" fill="none" fill-rule="evenodd">
		<g id="首页-/-广电5G" transform="translate(-300.000000, -218.000000)">
			<rect x="0" y="0" width="375" height="812">
			</rect>
			<rect id="矩形" x="15" y="173" width="345" height="130" rx="8">
			</rect>
			<rect id="矩形" x="300" y="218" width="30" height="30">
			</rect>
			<g id="shouji" transform="translate(303.000000, 218.000000)" fill-rule="nonzero">
				<path d="M11.5,26 C10.1363636,26 9,24.8636364 9,23.5 C9,22.1363636 10.1363636,21 11.5,21 C12.8636364,21 14,22.1363636 14,23.5 C14,24.8636364 12.8636364,26 11.5,26 Z M11.5,22.25 C10.8181818,22.25 10.25,22.8181818 10.25,23.5 C10.25,24.1818182 10.8181818,24.75 11.5,24.75 C12.1818182,24.75 12.75,24.1818182 12.75,23.5 C12.75,22.8181818 12.1818182,22.25 11.5,22.25 Z" id="形状" fill="#000000">
				</path>
				<path d="M15.7654179,0.152504119 C16.916692,-0.495785035 17.9948559,1.09251567 16.8435818,1.74080482 C15.6923077,2.38909398 12.5302992,3.42191302 11.0437961,3.42191302 L4.46162601,3.40181943 C3.03738233,3.46928035 1.92519758,4.46826241 1.8501887,5.67459268 L1.84615385,25.7559611 C1.84615385,27.0197574 2.98651648,28.0888742 4.46162601,28.1587444 L4.61538462,28.1623749 L19.3846154,28.1623749 C20.881853,28.1623749 22.0721235,27.1353847 22.1498113,25.8859712 L22.1538462,25.7559611 L22.1538462,5.80460279 C22.1538462,4.54080644 21.0134835,3.47168967 19.538374,3.40181943 C19.7389548,3.39736491 19.408832,3.39615475 18.5480055,3.39818896 C17.2567658,3.40124028 17.1699652,1.55513483 18.5480055,1.56056386 C19.9260458,1.56599289 18.7192072,1.56056386 19.3846154,1.56056386 C21.8566697,1.56056386 23.9049599,3.35461993 23.9967871,5.64408519 L24,25.7559611 C24,28.0677663 22.0078929,29.9143634 19.5563775,29.9971055 L19.3846154,30 L4.61538462,30 C2.14333027,30 0.0950401234,28.2059439 0.00321291353,25.9164787 L0,25.7559611 L0,5.80460279 C0,3.4927976 1.99210709,1.6462005 4.44362254,1.56345838 C8.10337315,1.56538806 10.3741623,1.56538806 11.2559899,1.56345838 C12.5787313,1.56056386 13.9628459,0.974315049 15.7654179,0.152504119 Z" id="路径" fill="#000000" transform="translate(12.000000, 15.000000) scale(1, -1) translate(-12.000000, -15.000000) ">
				</path>
				<path d="M18.8362263,4.57272128 C19.8917717,4.57272128 20.5435417,3.69233556 20.5983112,2.67770133 C20.5983112,2.67770133 20.5559436,2 21.3584174,2 C21.799652,2 22,2.33970765 22,2.77556267 C22,4.65295291 20.5645331,5.929434 18.8362263,5.99662792 C18.8362263,5.99662792 18,6.0871682 18,5.32994474 C18,4.57272128 18.8362263,4.57272128 18.8362263,4.57272128 Z" id="路径" fill="#2C66A5" transform="translate(20.000000, 4.000000) scale(1, -1) translate(-20.000000, -4.000000) ">
				</path>
				<path d="M13.5454545,4 L9.45454546,4 C9.18181819,4 9,3.79999999 9,3.5 C9,3.20000001 9.18181819,3 9.45454546,3 L13.5454545,3 C13.8181818,3 14,3.20000001 14,3.5 C14,3.70000001 13.8181818,4 13.5454545,4 Z" id="路径" fill="#000000">
				</path>
			</g>
		</g>
	</g>
</svg>
