<?xml version="1.0" encoding="UTF-8"?>
<svg width="32px" height="32px" viewBox="0 0 32 32" version="1.1" xmlns="http://www.w3.org/2000/svg" xmlns:xlink="http://www.w3.org/1999/xlink">
	<title>
	</title>
	<defs>
		<linearGradient x1="50%" y1="0%" x2="50%" y2="100%" id="linearGradient-1">
			<stop stop-color="#61E2FE" offset="0%">
			</stop>
			<stop stop-color="#0D89BD" offset="100%">
			</stop>
		</linearGradient>
	</defs>
	<g id="来量吧" stroke="none" stroke-width="1" fill="none" fill-rule="evenodd">
		<g id="设备详情" transform="translate(-27.000000, -231.000000)" fill="url(#linearGradient-1)" fill-rule="nonzero">
			<g id="编组-6" transform="translate(15.000000, 184.000000)">
				<g id="编组-5" transform="translate(12.000000, 47.000000)">
					<path d="M16,0 C7.162,0 0,7.165 0,16 C0,24.838 7.163,32 16,32 C24.834,32 32,24.837 32,16 C32,7.166 24.836,0 16,0 L16,0 Z M11.5,15.5769231 C14.5375661,15.5769231 17,18.039357 17,21.0769231 C17,21.2455819 16.9924084,21.4124676 16.9775484,21.5772572 L16.05633,21.577332 C16.0741759,21.4129804 16.0833333,21.2460211 16.0833333,21.0769231 C16.0833333,18.545618 14.0313051,16.4935897 11.5,16.4935897 C8.9686949,16.4935897 6.91666667,18.545618 6.91666667,21.0769231 C6.91666667,21.2463655 6.92586139,21.4136605 6.94377912,21.5783361 C6.63068871,21.5816172 6.32621528,21.621915 6.03438702,21.6942535 C6.01165146,21.4920933 6,21.2858688 6,21.0769231 C6,18.039357 8.46243388,15.5769231 11.5,15.5769231 Z M11.7307692,10 C13.1114811,10 14.2307692,11.1192881 14.2307692,12.5 C14.2307692,13.8807119 13.1114811,15 11.7307692,15 C10.3500574,15 9.23076923,13.8807119 9.23076923,12.5 C9.23076923,11.1192881 10.3500574,10 11.7307692,10 Z M11.7307692,11 C10.9023421,11 10.2307692,11.6715729 10.2307692,12.5 C10.2307692,13.3284271 10.9023421,14 11.7307692,14 C12.5591964,14 13.2307692,13.3284271 13.2307692,12.5 C13.2307692,11.6715729 12.5591964,11 11.7307692,11 Z M25.5384615,10.9230769 C25.7933622,10.9230769 26,11.1297147 26,11.3846154 C26,11.639516 25.7933622,11.8461538 25.5384615,11.8461538 L18.4615385,11.8461538 C18.2066378,11.8461538 18,11.639516 18,11.3846154 C18,11.1297147 18.2066378,10.9230769 18.4615385,10.9230769 L25.5384615,10.9230769 Z M18.4615385,14.8461538 L23.7606838,14.8461538 C24.0155844,14.8461538 24.2222222,15.0527917 24.2222222,15.3076923 C24.2222222,15.562593 24.0155844,15.7692308 23.7606838,15.7692308 L18.4615385,15.7692308 C18.2066378,15.7692308 18,15.562593 18,15.3076923 C18,15.0527917 18.2066378,14.8461538 18.4615385,14.8461538 Z M18.4615385,18.7692308 L21.982906,18.7692308 C22.2378066,18.7692308 22.4444444,18.9758686 22.4444444,19.2307692 C22.4444444,19.4856699 22.2378066,19.6923077 21.982906,19.6923077 L18.4615385,19.6923077 C18.2066378,19.6923077 18,19.4856699 18,19.2307692 C18,18.9758686 18.2066378,18.7692308 18.4615385,18.7692308 Z" id="形状">
					</path>
				</g>
			</g>
		</g>
	</g>
</svg>
