<?xml version="1.0" encoding="UTF-8"?>
<svg width="30px" height="30px" viewBox="0 0 30 30" version="1.1" xmlns="http://www.w3.org/2000/svg" xmlns:xlink="http://www.w3.org/1999/xlink">
	<title>
		kefu
	</title>
	<g id="广电卡5G" stroke="none" stroke-width="1" fill="none" fill-rule="evenodd">
		<g id="首页-/-广电5G" transform="translate(-215.000000, -218.000000)">
			<rect x="0" y="0" width="375" height="812">
			</rect>
			<rect id="矩形" x="15" y="173" width="345" height="130" rx="8">
			</rect>
			<rect id="矩形" x="215" y="218" width="30" height="30">
			</rect>
			<g id="kefu" transform="translate(215.000000, 218.000000)" fill-rule="nonzero">
				<path d="M27.6923077,17 L23.0769231,17 C21.1651682,17 19.6153846,18.6629424 19.6153846,20.7142857 L19.6153846,26.2857143 C19.6153846,28.3370576 21.1651682,30 23.0769231,30 L27.6923077,30 C28.966811,30 30,28.8913717 30,27.5238095 L30,19.4761905 C30,18.1086282 28.966811,17 27.6923077,17 L27.6923077,17 Z M23.0769231,19.4761905 L27.6923077,19.4761905 L27.6923077,27.5238095 L23.0769231,27.5238095 C22.4396714,27.5238095 21.9230769,26.9694954 21.9230769,26.2857143 L21.9230769,20.7142857 C21.9230769,20.3859224 22.0446425,20.0710081 22.2610306,19.8388202 C22.4774188,19.6066323 22.770904,19.4761905 23.0769231,19.4761905 L23.0769231,19.4761905 Z M6.92307693,17 L2.30769229,17 C1.03318904,17 0,18.1086282 0,19.4761905 L0,27.5238095 C0,28.8913717 1.03318902,30 2.30769229,30 L6.92307693,30 C8.83483183,30 10.3846154,28.3370576 10.3846154,26.2857143 L10.3846154,20.7142857 C10.3846154,18.6629424 8.83483183,17 6.92307693,17 L6.92307693,17 Z M2.30769229,19.4761905 L6.92307693,19.4761905 C7.22909596,19.4761905 7.52258124,19.6066323 7.73896937,19.8388202 C7.9553575,20.0710081 8.07692307,20.3859224 8.07692307,20.7142857 L8.07692307,26.2857143 C8.07692307,26.9694954 7.56032856,27.5238095 6.92307693,27.5238095 L2.30769229,27.5238095 L2.30769229,19.4761905 Z" id="形状" fill="#444444">
				</path>
				<path d="M15,0 C23.1703755,0 29.8649883,6.87625713 29.9982574,15.3397581 L30,15.5965005 L30,22.7948854 C30.0027736,23.4420377 29.5114162,23.9748587 28.8894469,23.9991404 C28.2674777,24.0234221 27.7390766,23.5304126 27.6951814,22.8848652 L27.6922968,22.7948854 L27.6922968,15.5965005 C27.6922968,8.34112848 21.977876,2.39946163 15,2.39946163 C8.09191988,2.39946163 2.4219221,8.2223551 2.30942215,15.3793492 L2.30769138,15.5965005 L2.30769138,22.7948854 C2.31047675,23.4420377 1.81911934,23.9748587 1.19715011,23.9991404 C0.57518087,24.0234221 0.0467797938,23.5304126 0.00288460299,22.8848652 L0,22.7948854 L0,15.5965005 C0,7.01542591 6.74711272,0 15,0 Z" id="路径" fill="#444444">
				</path>
				<path d="M21.0434974,8 C21.2532617,8 21.4484156,8.06748627 21.6117395,8.18415742 L21.6701813,8.2293389 C23.7756517,9.96167672 24.7366368,12.376104 24.9951025,16.0217136 C25.0226754,16.4106237 24.9650601,16.9193689 23.9833068,16.9949182 C23.3288046,17.0452844 22.9703341,16.7212641 22.9078953,16.0228574 C22.9063299,13.5979276 22.076665,11.511001 20.5608307,10.181293 L20.4168134,10.0583308 C20.0578323,9.76272438 19.9116009,9.24858529 20.0537314,8.78176071 C20.1958618,8.31493612 20.5944905,8 21.0434974,8 Z" id="路径" fill="#2C66A5">
				</path>
			</g>
		</g>
	</g>
</svg>
