<?xml version="1.0" encoding="UTF-8"?>
<svg width="30px" height="30px" viewBox="0 0 30 30" version="1.1" xmlns="http://www.w3.org/2000/svg" xmlns:xlink="http://www.w3.org/1999/xlink">
	<title>
		fenxiang
	</title>
	<g id="广电卡5G" stroke="none" stroke-width="1" fill="none" fill-rule="evenodd">
		<g id="首页-/-广电5G" transform="translate(-130.000000, -218.000000)">
			<rect x="0" y="0" width="375" height="812">
			</rect>
			<rect id="矩形" x="15" y="173" width="345" height="130" rx="8">
			</rect>
			<rect id="矩形" x="130" y="218" width="30" height="30">
			</rect>
			<g id="fenxiang" transform="translate(130.000000, 218.000000)" fill-rule="nonzero">
				<path d="M28.7442201,13.871291 C27.9942201,13.871291 27.5505838,14.25 27.5505838,15 C27.5505838,21.75 21.75,27.7033519 15,27.7033519 C8.25,27.7033519 2.26445803,21.75 2.26445803,15 C2.26445803,8.25 8.25,2.31243223 15,2.31243223 C15.75,2.31243223 16.2590145,1.85422104 16.2590145,1.10422107 C16.2590145,0.354221096 15.75,0 15,0 C6.75,0 0,6.75 0,15 C0,23.25 6.75,30 15,30 C23.25,30 30,23.25 30,15 C30,14.25 29.4942201,13.871291 28.7442201,13.871291 Z" id="路径" fill="#000000">
				</path>
				<path d="M16.4897905,24.7560142 C12.9480564,24.7560142 9.64492183,22.6915681 7.55342826,19.6290581 C6.53274434,18.1345019 4.97143295,19.6290581 5.67735765,20.7419749 C8.07351186,24.519602 12.033202,27 16.4897905,27 C17.8367365,27 17.8367365,24.7560142 16.4897905,24.7560142 Z" id="路径" fill="#2C66A5">
				</path>
				<path d="M20.850563,3.73419635 L23.5068082,4.07574929 L13.9034602,13.7075428 C13.3585894,14.2540275 13.3724819,15.0613959 13.9034602,15.6202393 C14.3845602,16.1265869 15.3771585,16.1265869 15.810508,15.6202393 L25.4138561,5.98844588 L25.7544003,8.65255895 C25.8225092,9.33566486 26.5611646,9.8821496 27.3209039,9.8821496 C28.0806431,9.8821496 28.614972,9.13073309 28.4787543,8.37931658 L27.9338835,3.93912812 C27.7976658,2.70953747 26.7760331,1.68487859 25.5500737,1.54825739 L21.3175947,1.00599351 C20.5683973,0.937682905 19.6289417,1.46038209 19.5608328,2.2117986 C19.492724,2.96321511 20.1013657,3.59757515 20.850563,3.73419635 Z" id="路径" fill="#000000">
				</path>
			</g>
		</g>
	</g>
</svg>
