<?xml version="1.0" encoding="UTF-8"?>
<svg width="40px" height="40px" viewBox="0 0 40 40" version="1.1" xmlns="http://www.w3.org/2000/svg" xmlns:xlink="http://www.w3.org/1999/xlink">
    <title>unlink</title>
    <g id="来量吧" stroke="none" stroke-width="1" fill="none" fill-rule="evenodd">
        <g id="更多/解绑" transform="translate(-34.000000, -126.000000)">
            <g id="编组-32" transform="translate(30.000000, 126.000000)">
                <rect id="矩形" x="4" y="0" width="40" height="40"></rect>
                <g id="unlink" transform="translate(4.000000, 0.000000)" fill="#666666">
                    <path d="M20,0 C31.045695,0 40,8.954305 40,20 C40,31.045695 31.045695,40 20,40 C8.954305,40 0,31.045695 0,20 C0,8.954305 8.954305,0 20,0 Z M23.0059386,26.0000723 C22.7381958,25.9968256 22.4804821,26.103075 22.2911458,26.2947648 C22.1018094,26.4864546 21.9968645,26.7473718 22.0000714,27.0184428 L22.0000714,31.0919247 C22.0556712,31.6086095 22.4866609,32 23.0000217,32 C23.5133825,32 23.9443722,31.6086095 23.999972,31.0919247 L23.999972,27.0184428 C24.0019862,26.7480709 23.8951699,26.4885253 23.7041287,26.299593 C23.5189043,26.1113617 23.2683511,26.0038754 23.0059386,26.0000723 Z M14.3279056,18.2363604 L9.69026647,22.8722455 C8.27398974,24.1817337 7.68750099,26.1606033 8.16165022,28.029944 C8.63579945,29.8992848 10.0946598,31.3597538 11.9640038,31.8364905 C13.8333479,32.3132272 15.8138322,31.7298904 17.1259111,30.3160894 L21.7635502,25.6802044 C22.0928598,25.3097953 22.0762865,24.7470016 21.7257501,24.3965978 C21.3752137,24.0461939 20.812207,24.0296268 20.4416578,24.3588119 L20.4526736,24.3588119 L15.8590976,28.994697 C14.5206524,30.332636 12.350604,30.332636 11.0121588,28.994697 C9.67371367,27.6567581 9.67371367,25.4875304 11.0121588,24.1495915 L15.6497979,19.5577528 C15.9791076,19.1873437 15.9625342,18.62455 15.6119978,18.2741462 C15.2614614,17.9237424 14.6984548,17.9071753 14.3279056,18.2363604 Z M28.029867,26.0001084 C27.6147471,25.9940544 27.2377933,26.242146 27.0781149,26.6265028 C26.9184365,27.0108596 27.008223,27.4539992 27.3048125,27.7453642 L30.2050305,30.6541238 C30.4583944,30.9400561 30.8488663,31.0616442 31.2191425,30.9699059 C31.5894188,30.8781676 31.8785254,30.5882096 31.9699943,30.2168428 C32.0614632,29.845476 31.9402321,29.4538541 31.6551395,29.199744 L28.7549215,26.2909843 C28.56158,26.1009355 28.3005561,25.9962184 28.029867,26.0001084 Z M31.0923196,22.000028 L27.0206096,22.000028 C26.7503554,21.9980139 26.4909226,22.1048283 26.3020726,22.2958662 C26.0081491,22.5803483 25.9191697,23.0130197 26.0774127,23.3882969 C26.2356558,23.7635742 26.6092212,24.0058052 27.0206096,23.9998942 L31.0923196,23.9998942 C31.6087797,23.9442954 32,23.5133131 32,22.9999611 C32,22.486609 31.6087797,22.0556268 31.0923196,22.000028 Z M26.6719859,8 C25.2633502,8 23.9124099,8.55892232 22.9163628,9.55380781 L18.2385007,14.2261324 C17.9063348,14.599453 17.9230518,15.1666705 18.2766285,15.5198287 C18.6302053,15.8729869 19.1980951,15.8896841 19.5718581,15.5579114 L24.2163862,10.8744887 C25.1948576,9.87431838 26.6833291,9.56773632 27.9781202,10.0996803 C29.2729113,10.6316243 30.114642,11.8955324 30.1053811,13.2938871 C30.1194764,14.2186343 29.754127,15.1088712 29.0942518,15.7576782 L24.4163898,20.4300028 C24.084224,20.8033234 24.1009411,21.3705408 24.4545178,21.7236989 C24.8080944,22.076857 25.3759841,22.0935543 25.7497471,21.7617818 L30.4276091,17.0894572 C31.4339096,16.093267 32,14.7367789 32,13.3216325 C32,11.9064861 31.4339096,10.549998 30.4276091,9.55380781 C29.431562,8.55892232 28.0806217,8 26.6719859,8 Z M12.9793903,16.0001058 L8.90768027,16.0001058 C8.39122022,16.0557047 8,16.4866869 8,17.0000389 C8,17.5133909 8.39122022,17.9443731 8.90768027,17.999972 L12.9793903,17.999972 C13.2496446,18.0019862 13.5090774,17.8951717 13.6979274,17.7041338 C13.9918509,17.4196517 14.0808303,16.9869803 13.9225873,16.6117031 C13.7643442,16.2364258 13.3907788,15.9941948 12.9793903,16.0001058 Z M9.30608331,9.30700051 C8.91485862,9.69939752 8.89636152,10.3296377 9.26389555,10.7444374 L12.2145559,13.7039395 C12.41126,13.8973037 12.6768238,14.0038475 12.9522209,13.9998897 C13.3745609,14.0060494 13.7580709,13.7536298 13.9205265,13.362568 C14.0829821,12.9715062 13.9916339,12.5206362 13.689886,12.2241885 L10.7392257,9.26468633 C10.3256652,8.89605096 9.69730799,8.91460349 9.30608331,9.30700051 Z M16.9999783,8 C16.4866174,8 16.0556278,8.39217362 16.000028,8.90989224 L16.000028,12.9915243 C15.9980138,13.2624371 16.1048301,13.5225021 16.2958713,13.7118124 C16.4829934,13.8960227 16.7333171,13.9993213 16.9940614,13.9999276 C17.2618042,14.0031808 17.5195179,13.8967188 17.7088542,13.7046454 C17.8981906,13.5125721 18.0031355,13.2511328 17.9999286,12.9795195 L17.9999286,8.90989224 C17.9443288,8.39217362 17.5133392,8 16.9999783,8 Z" id="形状结合"></path>
                </g>
            </g>
        </g>
    </g>
</svg>