<?xml version="1.0" encoding="UTF-8"?>
<svg viewBox="0 0 50 50" version="1.1" xmlns="http://www.w3.org/2000/svg" xmlns:xlink="http://www.w3.org/1999/xlink">
	<title>
		形状
	</title>
	<g id="广电卡5G" stroke="none" stroke-width="1" fill="none" fill-rule="evenodd">
		<g id="首页-/-广电5G" transform="translate(-15.000000, -111.000000)">
			<rect fill="#F5F5F5" x="0" y="0" width="375" height="812">
			</rect>
			<path d="M40,161 C53.8071187,161 65,149.807119 65,136 C65,122.192881 53.8071187,111 40,111 C26.1928813,111 15,122.192881 15,136 C15,149.807119 26.1928813,161 40,161 Z M39.7916667,122.875 C44.7916667,122.875 48.9583333,127.041667 48.9583333,132.041667 C48.9583333,137.041667 44.7916667,141.208333 39.7916667,141.208333 C34.7916666,141.208333 30.625,137.041667 30.625,132.041667 C30.625,127.041667 34.7916667,122.875 39.7916667,122.875 Z M24.5833333,151.625 C27.2916667,145.583333 33.125,141.625 39.7916667,141.625 C46.4583333,141.625 52.2916667,145.583333 55,151.625 C51.0416667,155.375 45.625,157.875 39.7916667,157.875 C33.9583333,157.666667 28.5416667,155.375 24.5833333,151.625 Z" id="形状" fill="#2C66A5" fill-rule="nonzero">
			</path>
		</g>
	</g>
</svg>
