<?xml version="1.0" encoding="UTF-8"?>
<svg width="40px" height="40px" viewBox="0 0 40 40" version="1.1" xmlns="http://www.w3.org/2000/svg" xmlns:xlink="http://www.w3.org/1999/xlink">
    <title>矩形</title>
    <defs>
        <path d="M38.686608,11.9359856 L22.8324683,2.78259381 C21.267075,2.10378954 19.410772,2.60688459 18.4365972,4.29420463 L17.55984,5.81279271 C16.6310171,5.72648858 15.5567394,6.23113411 15.0696521,7.07479416 C14.5825647,7.9184542 14.6826677,9.10112876 15.0750231,9.77760726 L13.3215087,12.8147834 C12.5394834,12.8132329 11.5626231,13.1491464 10.9781183,14.1615385 C10.491031,15.0051985 10.591134,16.1878731 10.9834894,16.8643516 L9.22997494,19.9015277 C8.30115205,19.8152236 7.37367192,20.4046228 6.88658457,21.2482828 C6.39949722,22.0919428 6.49960023,23.2746174 6.89195565,23.9510959 L6.01519843,25.469684 C5.13844119,26.9882721 5.87511468,28.7634468 7.196293,29.5262294 L23.1972303,38.7643749 C24.2741935,39.6111359 25.8862815,39.1920192 26.6656212,37.8421632 L39.1350574,16.2444662 C40.0118146,14.7258781 40.0077863,12.6987683 38.686608,11.9359856 Z M27.9299706,20.7356074 C28.2235657,20.9051146 28.3481607,21.3673388 28.1791605,21.6600558 C28.0101603,21.9527727 27.5475649,22.0759824 27.2539697,21.9064751 L23.8776252,19.9571417 L22.8636239,21.7134434 L26.0931709,23.5780232 C26.3867661,23.7475304 26.5113611,24.2097546 26.3423609,24.5024716 C26.1733607,24.7951885 25.7107653,24.9183982 25.4171701,24.7488909 L22.1876231,22.8843111 L21.0046217,24.9333297 C20.8356215,25.2260467 20.3730261,25.3492564 20.0794309,25.1797491 C19.7858357,25.0102419 19.6612407,24.5480177 19.830241,24.2553007 L21.0132424,22.2062821 L18.2240882,20.5959632 C17.930493,20.4264559 17.805898,19.9642317 17.9748982,19.6715148 C18.1438985,19.3787978 18.6064938,19.2555881 18.900089,19.4250954 L21.6892432,21.0354143 L22.7032445,19.2791126 L19.9140903,17.6687937 C19.4736975,17.4145328 19.4959001,17.0370623 19.6649003,16.7443453 C19.8339005,16.4516284 20.2964959,16.3284187 20.5900911,16.497926 L23.2324477,18.0234913 L21.861903,12.939025 C21.7996055,12.7079129 21.8218081,12.3304424 22.2844035,12.2072327 C22.7469989,12.084023 23.0405941,12.2535303 23.1651891,12.7157545 L24.5357338,17.8002207 L29.624283,16.4449141 C30.0868784,16.3217044 30.3804736,16.4912117 30.5050685,16.9534359 C30.7141636,17.2693016 30.4606633,17.708377 30.082568,17.6852282 L24.8472212,18.9557812 L27.9299706,20.7356074 Z" id="path-1"></path>
        <filter x="-5.9%" y="-5.4%" width="111.7%" height="110.9%" filterUnits="objectBoundingBox" id="filter-2">
            <feMorphology radius="1" operator="erode" in="SourceAlpha" result="shadowSpreadInner1"></feMorphology>
            <feGaussianBlur stdDeviation="1" in="shadowSpreadInner1" result="shadowBlurInner1"></feGaussianBlur>
            <feOffset dx="1" dy="1" in="shadowBlurInner1" result="shadowOffsetInner1"></feOffset>
            <feComposite in="shadowOffsetInner1" in2="SourceAlpha" operator="arithmetic" k2="-1" k3="1" result="shadowInnerInner1"></feComposite>
            <feColorMatrix values="0 0 0 0 1   0 0 0 0 1   0 0 0 0 1  0 0 0 0.702305507 0" type="matrix" in="shadowInnerInner1" result="shadowMatrixInner1"></feColorMatrix>
            <feMorphology radius="1" operator="erode" in="SourceAlpha" result="shadowSpreadInner2"></feMorphology>
            <feGaussianBlur stdDeviation="1" in="shadowSpreadInner2" result="shadowBlurInner2"></feGaussianBlur>
            <feOffset dx="-1" dy="-1" in="shadowBlurInner2" result="shadowOffsetInner2"></feOffset>
            <feComposite in="shadowOffsetInner2" in2="SourceAlpha" operator="arithmetic" k2="-1" k3="1" result="shadowInnerInner2"></feComposite>
            <feColorMatrix values="0 0 0 0 1   0 0 0 0 1   0 0 0 0 1  0 0 0 0.699300699 0" type="matrix" in="shadowInnerInner2" result="shadowMatrixInner2"></feColorMatrix>
            <feMerge>
                <feMergeNode in="shadowMatrixInner1"></feMergeNode>
                <feMergeNode in="shadowMatrixInner2"></feMergeNode>
            </feMerge>
        </filter>
    </defs>
    <g id="来量吧" stroke="none" stroke-width="1" fill="none" fill-rule="evenodd">
        <g id="首页-/已连接" transform="translate(-199.000000, -618.000000)" fill-rule="nonzero">
            <g id="zhangdan" transform="translate(199.000000, 618.000000)">
                <rect id="矩形" x="2.27373675e-13" y="0" width="40" height="40"></rect>
                <path d="M23.4,0 L4.68000002,0 C2.94666668,0.213689935 1.56000003,1.70951948 1.56000001,3.8464188 L1.56000001,5.76962822 C0.693333336,6.19700809 0,7.26545777 0,8.33390745 C0,9.40235713 0.693333336,10.4708068 1.38666667,10.8981866 L1.38666667,14.7446055 C0.693333336,15.1719853 0,16.0267451 0,17.3088847 C0,18.3773343 0.693333336,19.445784 1.38666667,19.8731639 L1.38666667,23.7195827 C0.520000002,24.1469626 0,25.2154122 0,26.2838619 C0,27.3523116 0.693333336,28.4207613 1.38666667,28.8481411 L1.38666667,30.7713505 C1.38666667,32.69456 2.94666668,33.9766996 4.50666669,33.9766996 L23.4,33.9766996 C24.7866667,34.1903895 26,32.9082499 26,31.1987304 L26,3.8464188 C26,1.92320939 24.96,0 23.4,0 Z M5.625,11 L17.375,11 C18.2724627,11 19,11.7275373 19,12.625 C19,13.5224627 18.2724627,14.25 17.375,14.25 L5.625,14.25 C4.72753728,14.25 4,13.5224627 4,12.625 C4,11.7275373 4.72753728,11 5.625,11 Z M5.625,19.25 L11.375,19.25 C12.2724627,19.25 13,19.9775373 13,20.875 C13,21.7724627 12.2724627,22.5 11.375,22.5 L5.625,22.5 C4.72753728,22.5 4,21.7724627 4,20.875 C4,19.9775373 4.72753728,19.25 5.625,19.25 Z" id="形状" fill="#1EC108"></path>
                <g id="形状">
                    <use fill-opacity="0.341482736" fill="#1EC108" xlink:href="#path-1"></use>
                    <use fill="black" fill-opacity="1" filter="url(#filter-2)" xlink:href="#path-1"></use>
                </g>
            </g>
        </g>
    </g>
</svg>